<!-- Generated by IcoMoon.io -->
<svg version="1.1" xmlns="http://www.w3.org/2000/svg" width="1024" height="1024" viewBox="0 0 1024 1024">
<title></title>
<g id="icomoon-ignore">
</g>
<path fill="#ed1d24" d="M512 0c282.77 0 512 229.23 512 512s-229.23 512-512 512c-282.77 0-512-229.23-512-512s229.23-512 512-512z"></path>
<path fill="#fafafa" stroke="#fafafa" stroke-linejoin="miter" stroke-linecap="butt" stroke-miterlimit="4" stroke-width="12.8" d="M273.067 130.133h-6.4v759.245h67.823v-542.583l145.22 542.583h62.95l1.28-4.753 143.94-537.83v542.583h67.823v-759.245h-81.519l-1.271 4.753-161.732 607.070-163.004-611.823h-75.11z"></path>
<path fill="#0c0b0b" d="M51.2 358.4h921.6v307.2h-921.6z"></path>
<path fill="#fafafa" d="M139.093 418.133l26.419 187.733h-31.659l-3.499-28.962h-24.431l-3.738 28.971h-31.164l26.18-187.75h41.882zM127.121 546.867l-8.977-78.848-8.482 78.848h17.459zM196.181 417.86c7.987 0 14.882 1.604 20.702 4.821 5.932 3.324 10.908 7.639 14.876 12.773l0.083 0.112c4.139 5.389 7.594 11.598 10.065 18.285l0.158 0.489c2.654 6.963 4.736 14.208 6.229 21.717 1.502 7.509 2.492 15.104 2.987 22.801 0.674 7.509 1.007 14.481 1.007 20.915 0 14.31-1.417 26.377-4.241 36.215-2.662 9.83-6.144 17.877-10.47 24.132-4.156 6.263-8.559 11.179-13.218 14.763-7.792 5.963-17.456 9.858-27.979 10.706l-0.189 0.012h-30.669l0.495-187.742h30.174zM196.693 577.178l1.741-0.273c1.161-0.171 2.654-0.802 4.489-1.877 1.988-1.246 4.070-3.132 6.229-5.632 2.33-2.5 4.403-6.076 6.229-10.726 1.997-4.651 3.584-10.462 4.745-17.434 1.323-7.151 1.988-15.915 1.988-26.283 0-2.688-0.085-6.17-0.247-10.462-0.217-5.072-0.663-9.791-1.336-14.435l0.090 0.756c-0.58-5.51-1.458-10.436-2.651-15.237l0.159 0.756c-1.184-4.995-2.809-9.375-4.894-13.484l0.158 0.343c-1.835-3.934-4.156-7.066-6.98-9.387-2.616-2.333-6.085-3.758-9.886-3.758-0.118 0-0.236 0.001-0.354 0.004h0.017l0.495 127.13zM292.693 418.133l13.969 113.178 14.711-113.186h31.411l-27.665 187.75h-36.898l-27.921-187.75h32.393zM354.756 605.867v-187.733h58.59v33.254h-26.428v42.377h26.684v34.867h-28.177v42.377h28.416v34.859h-59.085zM423.398 605.867v-187.733h31.164l26.675 97.084v-97.084h31.915v187.75h-31.915l-26.923-89.591v89.856l-30.916-0.282zM618.291 418.133v34.048h-31.411v153.685h-30.677v-153.685h-33.655v-34.048h95.744zM726.818 513.075c0 6.255-0.085 12.962-0.256 20.113 0 6.972-0.41 13.943-1.246 20.924-0.709 7.281-2.028 13.932-3.93 20.331l0.193-0.755c-1.833 6.358-4.65 11.899-8.319 16.76l0.093-0.129c-3.627 4.726-8.215 8.53-13.489 11.163l-0.224 0.101c-5.649 2.859-12.629 4.292-20.941 4.292-11.469 0-20.446-2.15-26.931-6.443-6.315-4.284-11.051-10.368-14.208-18.236-2.987-8.047-4.821-17.698-5.487-28.962-0.495-11.264-0.751-23.782-0.751-37.547v-96.836h30.669v95.215c0.171 11.085 0.828 20.915 1.997 29.5 0.495 3.755 1.161 7.424 1.988 10.999 0.892 3.685 1.919 6.815 3.158 9.836l-0.163-0.449c1.331 2.679 2.748 4.915 4.241 6.707 1.664 1.604 3.49 2.406 5.487 2.406 2.492 0 4.565-0.802 6.229-2.406 1.826-1.792 3.328-4.028 4.489-6.707 1.331-2.859 2.33-5.99 2.987-9.387 0.836-3.584 1.502-7.245 1.997-10.999 0.998-8.585 1.417-18.415 1.246-29.5v-94.942h31.172v94.95zM769.971 418.133c0.093-0.001 0.203-0.001 0.314-0.001 5.802 0 11.352 1.080 16.46 3.051l-0.313-0.106c5.316 1.963 10.052 5.094 14.208 9.387 4.156 4.113 7.569 9.472 10.223 16.094 2.825 6.613 4.659 14.66 5.487 24.141 1.161 11.622 0.828 21.367-0.998 29.235-1.664 7.68-3.738 13.85-6.229 18.5-2.825 5.717-6.229 10.197-10.223 13.414l20.693 74.018h-31.915l-15.206-63.036-6.98 1.348v61.687h-31.42l0.256-187.75h35.644zM765.491 510.925c3.823-0.358 6.98-1.34 9.472-2.953 2.492-1.783 4.565-4.019 6.229-6.699 1.664-2.688 2.825-5.717 3.499-9.122 0.657-3.396 0.99-6.886 0.99-10.462 0-3.755-0.333-7.424-0.998-10.991-0.621-3.717-1.751-7.051-3.332-10.115l0.090 0.191c-1.439-2.973-3.559-5.419-6.167-7.204l-0.062-0.040c-2.492-1.792-5.734-2.679-9.728-2.679v60.075z"></path>
<path fill="#fafafa" d="M811.042 605.867v-187.733h58.59v33.254h-26.428v42.377h26.675v34.867h-28.169v42.377h28.425v34.859h-59.093zM951.74 418.133c0.162 0 0.247 1.783 0.247 5.359v11.264c0 5.009-0.085 10.641-0.247 16.896-5.154 0-10.394 0.538-15.71 1.613-5.229 0.875-9.919 2.463-14.231 4.683l0.27-0.127c-3.875 1.874-7.178 4.303-9.962 7.231l-0.013 0.014c-2.32 2.581-3.738 6.013-3.738 9.776 0 0.052 0 0.104 0.001 0.156v-0.008c0 3.217 1.075 5.99 3.234 8.311 2.33 2.321 5.077 4.651 8.235 6.972 3.319 2.33 6.895 4.915 10.718 7.782 3.985 2.679 7.561 5.897 10.718 9.651 3.328 3.755 6.067 8.311 8.235 13.679 2.321 5.367 3.49 11.887 3.49 19.575 0 11.452-1.997 21.282-5.99 29.508-3.817 8.046-9.216 14.776-15.842 20.025l-0.115 0.088c-6.647 5.188-14.455 9.028-23.433 11.537-8.977 2.5-18.449 3.755-28.425 3.755v-33.536c2.995 0 6.895-0.529 11.716-1.604 5.281-1.205 9.943-3.051 14.223-5.492l-0.254 0.133c4.718-2.561 8.693-5.885 11.906-9.851l0.057-0.073c3.328-4.113 4.907-9.216 4.736-15.292 0-3.038-1.075-5.632-3.243-7.774-2.412-2.522-5.11-4.737-8.051-6.604l-0.175-0.104c-3.157-2.33-6.562-4.736-10.223-7.245-3.904-2.917-7.333-6.086-10.406-9.577l-0.064-0.074c-3.18-4.011-5.867-8.618-7.848-13.582l-0.13-0.37c-1.997-5.359-2.995-11.981-2.995-19.84 0-8.226 2.167-15.829 6.485-22.801 4.635-7.106 10.359-13.074 17.005-17.836l0.198-0.135c6.731-4.844 14.499-8.85 22.829-11.625l0.612-0.177c7.807-2.68 16.803-4.247 26.159-4.292h0.021z"></path>
</svg>
