<svg width="93" height="62" viewBox="0 0 93 62" fill="none" xmlns="http://www.w3.org/2000/svg">
<rect y="31" width="93" height="31" fill="#0C0B0B"/>
<path d="M8.86861 37.0271L11.5355 55.9729H8.34025L7.98802 53.0499H5.52236L5.14497 55.9729H2L4.64177 37.0271H8.86861ZM7.66094 50.0185L6.75519 42.0613L5.89976 50.0185H7.66094Z" fill="#FAFAFA"/>
<path d="M14.6308 37C15.4359 37 16.132 37.1624 16.719 37.4872C17.3061 37.812 17.8093 38.245 18.2286 38.7863C18.6479 39.3276 18.9918 39.9592 19.2602 40.6809C19.5285 41.3846 19.7382 42.1154 19.8892 42.8732C20.0401 43.6311 20.1408 44.3979 20.1911 45.1738C20.2582 45.9316 20.2917 46.6353 20.2917 47.2849C20.2917 48.7284 20.1491 49.9463 19.864 50.9387C19.5956 51.9312 19.2434 52.7431 18.8073 53.3746C18.388 54.0062 17.9435 54.5024 17.4738 54.8632C16.6352 55.4948 15.6875 55.8557 14.6308 55.9459H11.5361L11.5864 37H14.6308ZM14.6811 53.0769C14.6811 53.0769 14.7398 53.0679 14.8572 53.0499C14.9746 53.0318 15.1256 52.9687 15.3101 52.8604C15.5114 52.7341 15.721 52.5446 15.9391 52.292C16.1739 52.0394 16.3836 51.6785 16.5681 51.2094C16.7694 50.7403 16.9287 50.1538 17.0461 49.4501C17.1803 48.7284 17.2474 47.8443 17.2474 46.7977C17.2474 46.5271 17.239 46.1752 17.2222 45.7422C17.2055 45.3091 17.1635 44.849 17.0964 44.3618C17.0461 43.8746 16.9622 43.3875 16.8448 42.9003C16.7274 42.4131 16.5681 41.971 16.3668 41.5741C16.1823 41.1771 15.9475 40.8613 15.6623 40.6268C15.3772 40.3742 15.0333 40.2479 14.6308 40.2479L14.6811 53.0769Z" fill="#FAFAFA"/>
<path d="M24.37 37.0271L25.7789 48.4487L27.2633 37.0271H30.4334L27.6407 55.9729H23.9171L21.0992 37.0271H24.37Z" fill="#FAFAFA"/>
<path d="M30.6324 55.9729V37.0271H36.5449V40.3832H33.878V44.6595H36.5701V48.1781H33.727V52.4544H36.5952V55.9729H30.6324Z" fill="#FAFAFA"/>
<path d="M37.5588 55.9729V37.0271H40.7037L43.3958 46.8248V37.0271H46.6163V55.9729H43.3958L40.6786 46.933V56L37.5588 55.9729Z" fill="#FAFAFA"/>
<path d="M57.226 37.0271V40.4644H54.0559V55.9729H50.9612V40.4644H47.5647V37.0271H57.226Z" fill="#FAFAFA"/>
<path d="M68.1772 46.6083C68.1772 47.2398 68.1688 47.9164 68.152 48.6382C68.152 49.3419 68.1101 50.0456 68.0262 50.7493C67.9591 51.4349 67.8333 52.0935 67.6488 52.7251C67.4643 53.3566 67.1876 53.916 66.8186 54.4031C66.4663 54.8723 66.0051 55.2512 65.4348 55.5399C64.8645 55.8286 64.16 55.9729 63.3213 55.9729C62.164 55.9729 61.2583 55.7564 60.6041 55.3234C59.9667 54.8903 59.4887 54.2768 59.17 53.4829C58.8681 52.6709 58.6836 51.6966 58.6165 50.5598C58.5662 49.4231 58.541 48.16 58.541 46.7707V37H61.6356V46.6083C61.6524 47.727 61.7195 48.7194 61.8369 49.5855C61.8872 49.9644 61.9543 50.3343 62.0382 50.6952C62.1221 51.038 62.2227 51.3538 62.3401 51.6425C62.4743 51.9131 62.6169 52.1387 62.7678 52.3191C62.9356 52.4815 63.1201 52.5627 63.3213 52.5627C63.5729 52.5627 63.7826 52.4815 63.9503 52.3191C64.1348 52.1387 64.2858 51.9131 64.4032 51.6425C64.5374 51.3538 64.638 51.038 64.7051 50.6952C64.789 50.3343 64.8561 49.9644 64.9064 49.5855C65.007 48.7194 65.049 47.727 65.0322 46.6083V37.0271H68.1772V46.6083Z" fill="#FAFAFA"/>
<path d="M72.5326 37.0271C73.1196 37.0271 73.6731 37.1263 74.1931 37.3248C74.7298 37.5233 75.2079 37.839 75.6272 38.2721C76.0465 38.6871 76.3904 39.2284 76.6588 39.896C76.9439 40.5636 77.1284 41.3756 77.2123 42.3319C77.3297 43.5047 77.2961 44.4881 77.1116 45.2821C76.9439 46.0579 76.7342 46.6804 76.4826 47.1496C76.1975 47.727 75.8536 48.1781 75.4511 48.5028L77.5393 55.9729H74.3189L72.7842 49.6125L72.0797 49.7479V55.9729H68.9096L68.9347 37.0271H72.5326ZM72.0797 46.3917C72.4655 46.3557 72.7842 46.2564 73.0358 46.094C73.2874 45.9136 73.497 45.688 73.6647 45.4174C73.8325 45.1467 73.9499 44.84 74.017 44.4972C74.0841 44.1543 74.1176 43.8025 74.1176 43.4416C74.1176 43.0627 74.0841 42.6928 74.017 42.3319C73.9499 41.953 73.8409 41.6192 73.6899 41.3305C73.5389 41.0237 73.3293 40.7802 73.0609 40.5997C72.8093 40.4193 72.4822 40.3291 72.0797 40.3291V46.3917Z" fill="#FAFAFA"/>
<path d="M76.6766 55.9729V37.0271H82.5892V40.3832H79.9222V44.6595H82.6143V48.1781H79.7713V52.4544H82.6395V55.9729H76.6766Z" fill="#FAFAFA"/>
<path d="M90.8742 37.0271C90.891 37.0271 90.8994 37.2075 90.8994 37.5684C90.8994 37.9112 90.8994 38.2901 90.8994 38.7051C90.8994 39.2104 90.891 39.7787 90.8742 40.4103C90.3542 40.4103 89.8259 40.4644 89.2891 40.5727C88.7692 40.6629 88.2995 40.8162 87.8802 41.0328C87.4776 41.2312 87.1422 41.4748 86.8738 41.7635C86.6222 42.0522 86.4964 42.386 86.4964 42.765C86.4964 43.0897 86.6054 43.3694 86.8235 43.604C87.0583 43.8386 87.3351 44.0731 87.6538 44.3077C87.9892 44.5423 88.3498 44.8039 88.7356 45.0926C89.1382 45.3632 89.4988 45.688 89.8175 46.067C90.153 46.4459 90.4297 46.906 90.6478 47.4473C90.8826 47.9886 91 48.6472 91 49.4231C91 50.5779 90.7987 51.5703 90.3962 52.4003C90.0104 53.2123 89.4736 53.8889 88.7859 54.4302C88.115 54.9535 87.3267 55.3414 86.4209 55.594C85.5152 55.8466 84.5591 55.9729 83.5527 55.9729V52.5897C83.8546 52.5897 84.2488 52.5356 84.7352 52.4274C85.2216 52.3191 85.6913 52.1387 86.1442 51.886C86.6138 51.6334 87.0164 51.2996 87.3518 50.8846C87.6873 50.4696 87.8466 49.9554 87.8299 49.3419C87.8299 49.0351 87.7209 48.7735 87.5028 48.557C87.2847 48.3224 87.008 48.0969 86.6725 47.8803C86.3538 47.6458 86.01 47.4022 85.641 47.1496C85.272 46.8789 84.9197 46.5541 84.5843 46.1752C84.2656 45.7783 83.9972 45.3091 83.7792 44.7678C83.5779 44.2265 83.4772 43.5589 83.4772 42.765C83.4772 41.9349 83.6953 41.1681 84.1314 40.4644C84.5843 39.7607 85.1629 39.1562 85.8674 38.651C86.5719 38.1458 87.3602 37.7488 88.2324 37.4601C89.1214 37.1714 90.002 37.0271 90.8742 37.0271Z" fill="#FAFAFA"/>
<path d="M2 34H91" stroke="#FAFAFA"/>
<path d="M2 59H91" stroke="#FAFAFA"/>
<rect width="93" height="31" fill="#ED1D24"/>
<path d="M2 26V6.40001H6.48L8.104 16.48L9.7 6.40001H14.264V26.028H10.624V16.564L9.028 26H7.152L5.556 16.648V26H2Z" fill="#FAFAFA"/>
<path d="M22.1628 6.40001L25.1308 26H21.5748L21.1828 22.976H18.4388L18.0188 26H14.5188L17.4588 6.40001H22.1628ZM20.8188 19.84L19.8108 11.608L18.8588 19.84H20.8188Z" fill="#FAFAFA"/>
<path d="M29.2755 6.40001C29.9288 6.40001 30.5448 6.50268 31.1235 6.70801C31.7208 6.91334 32.2528 7.24001 32.7195 7.68801C33.1862 8.11734 33.5688 8.67734 33.8675 9.36801C34.1848 10.0587 34.3902 10.8987 34.4835 11.888C34.6142 13.1013 34.5768 14.1187 34.3715 14.94C34.1848 15.7427 33.9515 16.3867 33.6715 16.872C33.3542 17.4693 32.9715 17.936 32.5235 18.272L34.8475 26H31.2635L29.5555 19.42L28.7715 19.56V26H25.2435L25.2715 6.40001H29.2755ZM28.7715 16.088C29.2008 16.0507 29.5555 15.948 29.8355 15.78C30.1155 15.5933 30.3488 15.36 30.5355 15.08C30.7222 14.8 30.8528 14.4827 30.9275 14.128C31.0022 13.7733 31.0395 13.4093 31.0395 13.036C31.0395 12.644 31.0022 12.2613 30.9275 11.888C30.8528 11.496 30.7315 11.1507 30.5635 10.852C30.3955 10.5347 30.1622 10.2827 29.8635 10.096C29.5835 9.90934 29.2195 9.81601 28.7715 9.81601V16.088Z" fill="#FAFAFA"/>
<path d="M37.5274 6.40001L39.0954 18.216L40.7474 6.40001H44.2754L41.1674 26H37.0234L33.8874 6.40001H37.5274Z" fill="#FAFAFA"/>
<path d="M44.4968 26V6.40001H51.0768V9.87201H48.1088V14.296H51.1048V17.936H47.9408V22.36H51.1328V26H44.4968Z" fill="#FAFAFA"/>
<path d="M55.7051 6.37201V22.472H58.7291V26.028H52.2331V6.40001L55.7051 6.37201Z" fill="#FAFAFA"/>
<path d="M59.5892 16.2C59.5892 14.7253 59.7199 13.3907 59.9812 12.196C60.2426 10.9827 60.6066 9.94668 61.0732 9.08801C61.5399 8.22934 62.1092 7.56668 62.7812 7.10001C63.4532 6.63334 64.1906 6.40001 64.9932 6.40001C65.7959 6.40001 66.5239 6.63334 67.1772 7.10001C67.8492 7.56668 68.4186 8.22934 68.8852 9.08801C69.3519 9.94668 69.7159 10.9827 69.9772 12.196C70.2386 13.3907 70.3692 14.7253 70.3692 16.2C70.3692 17.6747 70.2386 19.0187 69.9772 20.232C69.7159 21.4267 69.3519 22.4533 68.8852 23.312C68.4186 24.1707 67.8492 24.8333 67.1772 25.3C66.5239 25.7667 65.7959 26 64.9932 26C64.1906 26 63.4532 25.7667 62.7812 25.3C62.1092 24.8333 61.5399 24.1707 61.0732 23.312C60.6066 22.4533 60.2426 21.4267 59.9812 20.232C59.7199 19.0187 59.5892 17.6747 59.5892 16.2ZM63.0612 16.256C63.0612 17.1893 63.1079 18.0387 63.2012 18.804C63.2946 19.5693 63.4252 20.232 63.5932 20.792C63.7612 21.3333 63.9572 21.7533 64.1812 22.052C64.4239 22.3507 64.6852 22.5 64.9652 22.5C65.2452 22.5 65.4972 22.3507 65.7212 22.052C65.9639 21.7533 66.1599 21.3333 66.3092 20.792C66.4772 20.232 66.6079 19.5693 66.7012 18.804C66.7946 18.0387 66.8412 17.1893 66.8412 16.256C66.8412 15.3227 66.7946 14.4733 66.7012 13.708C66.6079 12.924 66.4772 12.2613 66.3092 11.72C66.1599 11.1787 65.9639 10.7587 65.7212 10.46C65.4972 10.1613 65.2452 10.012 64.9652 10.012C64.6852 10.012 64.4239 10.1613 64.1812 10.46C63.9572 10.7587 63.7612 11.1787 63.5932 11.72C63.4252 12.2613 63.2946 12.924 63.2012 13.708C63.1079 14.4733 63.0612 15.3227 63.0612 16.256Z" fill="#FAFAFA"/>
<path d="M81.905 16.312C81.905 16.9653 81.8957 17.6653 81.877 18.412C81.877 19.14 81.8303 19.868 81.737 20.596C81.6623 21.3053 81.5223 21.9867 81.317 22.64C81.1117 23.2933 80.8037 23.872 80.393 24.376C80.001 24.8613 79.4877 25.2533 78.853 25.552C78.2183 25.8507 77.4343 26 76.501 26C75.213 26 74.205 25.776 73.477 25.328C72.7677 24.88 72.2357 24.2453 71.881 23.424C71.545 22.584 71.3397 21.576 71.265 20.4C71.209 19.224 71.181 17.9173 71.181 16.48V6.37201H74.625V16.312C74.6437 17.4693 74.7183 18.496 74.849 19.392C74.905 19.784 74.9797 20.1667 75.073 20.54C75.1663 20.8947 75.2783 21.2213 75.409 21.52C75.5583 21.8 75.717 22.0333 75.885 22.22C76.0717 22.388 76.277 22.472 76.501 22.472C76.781 22.472 77.0143 22.388 77.201 22.22C77.4063 22.0333 77.5743 21.8 77.705 21.52C77.8543 21.2213 77.9663 20.8947 78.041 20.54C78.1343 20.1667 78.209 19.784 78.265 19.392C78.377 18.496 78.4237 17.4693 78.405 16.312V6.40001H81.905V16.312Z" fill="#FAFAFA"/>
<path d="M90.8401 6.40001C90.8587 6.40001 90.8681 6.58668 90.8681 6.96001C90.8681 7.31468 90.8681 7.70668 90.8681 8.13601C90.8681 8.65868 90.8587 9.24668 90.8401 9.90001C90.2614 9.90001 89.6734 9.95601 89.0761 10.068C88.4974 10.1613 87.9747 10.32 87.5081 10.544C87.0601 10.7493 86.6867 11.0013 86.3881 11.3C86.1081 11.5987 85.9681 11.944 85.9681 12.336C85.9681 12.672 86.0894 12.9613 86.3321 13.204C86.5934 13.4467 86.9014 13.6893 87.2561 13.932C87.6294 14.1747 88.0307 14.4453 88.4601 14.744C88.9081 15.024 89.3094 15.36 89.6641 15.752C90.0374 16.144 90.3454 16.62 90.5881 17.18C90.8494 17.74 90.9801 18.4213 90.9801 19.224C90.9801 20.4187 90.7561 21.4453 90.3081 22.304C89.8787 23.144 89.2814 23.844 88.5161 24.404C87.7694 24.9453 86.8921 25.3467 85.8841 25.608C84.8761 25.8693 83.8121 26 82.6921 26V22.5C83.0281 22.5 83.4667 22.444 84.0081 22.332C84.5494 22.22 85.0721 22.0333 85.5761 21.772C86.0987 21.5107 86.5467 21.1653 86.9201 20.736C87.2934 20.3067 87.4707 19.7747 87.4521 19.14C87.4521 18.8227 87.3307 18.552 87.0881 18.328C86.8454 18.0853 86.5374 17.852 86.1641 17.628C85.8094 17.3853 85.4267 17.1333 85.0161 16.872C84.6054 16.592 84.2134 16.256 83.8401 15.864C83.4854 15.4533 83.1867 14.968 82.9441 14.408C82.7201 13.848 82.6081 13.1573 82.6081 12.336C82.6081 11.4773 82.8507 10.684 83.3361 9.95601C83.8401 9.22801 84.4841 8.60268 85.2681 8.08001C86.0521 7.55734 86.9294 7.14668 87.9001 6.84801C88.8894 6.54934 89.8694 6.40001 90.8401 6.40001Z" fill="#FAFAFA"/>
</svg>
