<svg aria-hidden="true" style="position: absolute; width: 0; height: 0; overflow: hidden;" version="1.1" xmlns="http://www.w3.org/2000/svg" xmlns:xlink="http://www.w3.org/1999/xlink">
<defs>
<symbol id="icon-twitter" viewBox="0 0 32 32">
<path stroke-linejoin="round" stroke-linecap="round" stroke-miterlimit="4" stroke-width="3.2" d="M30.667 4c-1.277 0.901-2.691 1.589-4.187 2.040-0.803-0.923-1.87-1.578-3.057-1.875s-2.437-0.222-3.58 0.214c-1.143 0.436-2.125 1.213-2.812 2.226s-1.047 2.211-1.031 3.435v1.333c-2.343 0.061-4.665-0.459-6.759-1.513s-4.339-3.563-5.686-5.481c0 0-4.889 12.954 7.111 18.287-2.746 1.864-6.017 2.799-9.333 2.667 12 6.667 26.667 0 26.667-15.333-0.001-0.371-0.037-0.742-0.107-1.107 1.361-1.342 2.321-3.036 2.773-4.893z"></path>
</symbol>
<symbol id="icon-instagram" viewBox="0 0 32 32">
<path d="M23.983 6.229c-0.354 0-0.701 0.105-0.996 0.302s-0.524 0.477-0.66 0.804c-0.136 0.327-0.171 0.688-0.102 1.035s0.24 0.667 0.491 0.918c0.251 0.251 0.57 0.421 0.917 0.49s0.708 0.034 1.035-0.102c0.328-0.136 0.607-0.365 0.804-0.66s0.302-0.641 0.302-0.996c0-0.475-0.189-0.931-0.525-1.267s-0.792-0.525-1.267-0.525zM30.852 9.843c-0.029-1.239-0.261-2.465-0.687-3.629-0.38-0.996-0.971-1.898-1.732-2.643-0.739-0.765-1.643-1.353-2.643-1.717-1.161-0.439-2.388-0.676-3.629-0.702-1.583-0.090-2.091-0.090-6.152-0.090s-4.57 0-6.152 0.090c-1.241 0.026-2.468 0.263-3.629 0.702-0.998 0.368-1.901 0.955-2.643 1.717-0.765 0.739-1.353 1.643-1.717 2.643-0.439 1.161-0.676 2.388-0.702 3.629-0.090 1.583-0.090 2.091-0.090 6.153s0 4.57 0.090 6.152c0.026 1.241 0.263 2.468 0.702 3.629 0.365 1 0.952 1.904 1.717 2.643 0.742 0.762 1.645 1.349 2.643 1.717 1.161 0.439 2.388 0.676 3.629 0.702 1.583 0.090 2.091 0.090 6.152 0.090s4.57 0 6.152-0.090c1.241-0.026 2.468-0.263 3.629-0.702 1-0.365 1.904-0.952 2.643-1.717 0.765-0.743 1.356-1.645 1.732-2.643 0.426-1.164 0.658-2.39 0.687-3.629 0-1.583 0.090-2.091 0.090-6.152s0-4.57-0.090-6.153zM28.164 21.969c-0.011 0.948-0.183 1.887-0.508 2.778-0.238 0.65-0.621 1.237-1.12 1.717-0.484 0.493-1.070 0.876-1.717 1.12-0.891 0.325-1.83 0.497-2.778 0.508-1.493 0.075-2.046 0.090-5.973 0.090s-4.48 0-5.973-0.090c-0.984 0.018-1.964-0.133-2.897-0.448-0.619-0.257-1.178-0.638-1.643-1.12-0.496-0.48-0.874-1.068-1.105-1.717-0.365-0.903-0.567-1.864-0.597-2.837 0-1.493-0.090-2.046-0.090-5.973s0-4.48 0.090-5.973c0.007-0.969 0.184-1.929 0.523-2.837 0.263-0.63 0.666-1.192 1.18-1.643 0.454-0.513 1.014-0.921 1.643-1.195 0.91-0.328 1.87-0.5 2.837-0.508 1.493 0 2.046-0.090 5.973-0.090s4.48 0 5.973 0.090c0.948 0.011 1.887 0.183 2.778 0.508 0.679 0.252 1.288 0.661 1.777 1.195 0.489 0.459 0.872 1.020 1.12 1.643 0.332 0.909 0.504 1.869 0.508 2.837 0.075 1.493 0.090 2.046 0.090 5.973s-0.015 4.48-0.090 5.973zM16.008 8.335c-1.514 0.003-2.994 0.455-4.252 1.298s-2.237 2.041-2.815 3.441c-0.578 1.4-0.727 2.94-0.43 4.425s1.028 2.849 2.1 3.919c1.072 1.070 2.437 1.798 3.923 2.092s3.025 0.142 4.424-0.439c1.399-0.58 2.595-1.562 3.436-2.822s1.29-2.74 1.29-4.255c0.002-1.008-0.195-2.006-0.58-2.937s-0.951-1.777-1.664-2.489c-0.713-0.712-1.56-1.276-2.492-1.659s-1.931-0.579-2.939-0.575zM16.008 20.969c-0.983 0-1.945-0.292-2.763-0.838s-1.455-1.323-1.832-2.232c-0.376-0.909-0.475-1.909-0.283-2.873s0.665-1.851 1.361-2.546c0.695-0.695 1.582-1.169 2.546-1.361s1.965-0.093 2.873 0.283 1.685 1.014 2.232 1.832c0.546 0.818 0.838 1.779 0.838 2.763 0 0.653-0.129 1.3-0.379 1.903s-0.616 1.152-1.078 1.613c-0.462 0.462-1.010 0.828-1.613 1.078s-1.25 0.379-1.903 0.379z"></path>
</symbol>
<symbol id="icon-facebook" viewBox="0 0 18 32">
<path d="M14.45 5.602h2.924v-4.947c-1.416-0.147-2.839-0.22-4.262-0.218-4.231 0-7.124 2.582-7.124 7.311v4.076h-4.776v5.538h4.776v14.187h5.724v-14.187h4.76l0.716-5.538h-5.476v-3.531c0-1.633 0.436-2.691 2.738-2.691z"></path>
</symbol>
<symbol id="icon-twitter-mob" viewBox="0 0 32 32">
<path stroke-linejoin="round" stroke-linecap="round" stroke-miterlimit="4" stroke-width="2.7733" d="M30.332 5.44c-1.192 0.841-2.511 1.484-3.908 1.904-0.749-0.862-1.745-1.473-2.853-1.75s-2.274-0.207-3.341 0.2-1.983 1.132-2.625 2.077c-0.641 0.945-0.977 2.064-0.962 3.206v1.244c-2.187 0.057-4.354-0.428-6.308-1.412s-4.049-3.326-5.307-5.116c0 0-4.563 12.090 6.637 17.068-2.563 1.74-5.616 2.612-8.711 2.489 11.2 6.222 24.889 0 24.889-14.311-0.001-0.347-0.034-0.692-0.099-1.033 1.27-1.253 2.166-2.834 2.588-4.567z"></path>
</symbol>
<symbol id="icon-instagram-mob" viewBox="0 0 32 32">
<path d="M24.544 5.536c-0.38 0-0.751 0.113-1.067 0.324s-0.562 0.511-0.707 0.862c-0.145 0.351-0.183 0.737-0.109 1.109s0.257 0.715 0.525 0.983c0.269 0.269 0.611 0.451 0.983 0.525s0.759 0.036 1.11-0.109c0.351-0.145 0.651-0.391 0.861-0.707s0.324-0.687 0.324-1.067c0-0.509-0.202-0.998-0.562-1.358s-0.848-0.562-1.358-0.562zM31.904 9.408c-0.031-1.328-0.28-2.641-0.736-3.888-0.407-1.067-1.040-2.033-1.856-2.832-0.792-0.82-1.761-1.449-2.832-1.84-1.244-0.47-2.559-0.724-3.888-0.752-1.696-0.096-2.24-0.096-6.592-0.096s-4.896 0-6.592 0.096c-1.329 0.028-2.644 0.282-3.888 0.752-1.069 0.395-2.037 1.023-2.832 1.84-0.82 0.792-1.449 1.761-1.84 2.832-0.47 1.244-0.724 2.559-0.752 3.888-0.096 1.696-0.096 2.24-0.096 6.592s0 4.896 0.096 6.592c0.028 1.329 0.282 2.644 0.752 3.888 0.391 1.071 1.020 2.040 1.84 2.832 0.795 0.817 1.763 1.445 2.832 1.84 1.244 0.47 2.559 0.725 3.888 0.752 1.696 0.096 2.24 0.096 6.592 0.096s4.896 0 6.592-0.096c1.329-0.027 2.644-0.282 3.888-0.752 1.071-0.391 2.040-1.020 2.832-1.84 0.82-0.796 1.453-1.763 1.856-2.832 0.456-1.247 0.705-2.56 0.736-3.888 0-1.696 0.096-2.24 0.096-6.592s0-4.896-0.096-6.592zM29.024 22.4c-0.012 1.016-0.196 2.022-0.544 2.976-0.256 0.696-0.666 1.325-1.2 1.84-0.519 0.529-1.147 0.938-1.84 1.2-0.954 0.348-1.96 0.532-2.976 0.544-1.6 0.080-2.192 0.096-6.4 0.096s-4.8 0-6.4-0.096c-1.055 0.020-2.105-0.143-3.104-0.48-0.663-0.275-1.262-0.683-1.76-1.2-0.531-0.514-0.936-1.144-1.184-1.84-0.391-0.968-0.607-1.997-0.64-3.040 0-1.6-0.096-2.192-0.096-6.4s0-4.8 0.096-6.4c0.007-1.038 0.197-2.067 0.56-3.040 0.282-0.675 0.714-1.277 1.264-1.76 0.486-0.55 1.087-0.987 1.76-1.28 0.975-0.352 2.003-0.536 3.040-0.544 1.6 0 2.192-0.096 6.4-0.096s4.8 0 6.4 0.096c1.016 0.012 2.022 0.196 2.976 0.544 0.727 0.27 1.38 0.709 1.904 1.28 0.524 0.491 0.934 1.092 1.2 1.76 0.356 0.974 0.54 2.003 0.544 3.040 0.080 1.6 0.096 2.192 0.096 6.4s-0.016 4.8-0.096 6.4zM16 7.792c-1.623 0.003-3.208 0.487-4.556 1.391s-2.397 2.187-3.016 3.687c-0.619 1.5-0.779 3.15-0.461 4.741s1.102 3.052 2.25 4.198c1.149 1.146 2.611 1.926 4.203 2.242s3.241 0.152 4.74-0.47c1.499-0.622 2.78-1.674 3.681-3.023s1.382-2.936 1.382-4.558c0.002-1.080-0.209-2.149-0.622-3.147s-1.019-1.904-1.783-2.667-1.672-1.367-2.671-1.778c-0.999-0.411-2.069-0.62-3.148-0.616zM16 21.328c-1.054 0-2.084-0.312-2.96-0.898s-1.559-1.418-1.962-2.391c-0.403-0.974-0.509-2.045-0.303-3.078s0.713-1.983 1.458-2.728c0.745-0.745 1.694-1.253 2.728-1.458s2.105-0.1 3.078 0.303c0.974 0.403 1.806 1.086 2.391 1.962s0.898 1.906 0.898 2.96c0 0.7-0.138 1.393-0.406 2.039s-0.66 1.234-1.155 1.729c-0.495 0.495-1.082 0.887-1.729 1.155s-1.339 0.406-2.039 0.406z"></path>
</symbol>
<symbol id="icon-facebook-mob" viewBox="0 0 32 32">
<path d="M21.445 5.312h3.088v-5.088c-1.495-0.151-2.997-0.226-4.501-0.224-4.468 0-7.523 2.656-7.523 7.52v4.192h-5.043v5.696h5.043v14.592h6.045v-14.592h5.026l0.756-5.696h-5.782v-3.632c0-1.68 0.46-2.768 2.891-2.768z"></path>
</symbol>
<symbol id="icon-logo-mob" viewBox="0 0 209 32">
<path fill="#ed1d24" style="fill: var(--color1, #ed1d24)" d="M0 0h100.267v32h-100.267v-32z"></path>
<path fill="#fafafa" style="fill: var(--color2, #fafafa)" d="M4.267 27.703v-21.274h4.725l1.713 10.94 1.685-10.94h4.813v21.303h-3.84v-10.272l-1.683 10.24h-1.978l-1.685-10.148v10.15h-3.75zM25.536 6.43l3.132 21.274h-3.75l-0.414-3.283h-2.895l-0.444 3.283h-3.691l3.1-21.274h4.962zM24.119 21.018l-1.065-8.934-1.003 8.934h2.067zM33.041 6.43c0.689 0 1.338 0.111 1.948 0.335 0.631 0.222 1.193 0.576 1.685 1.065 0.491 0.465 0.896 1.073 1.21 1.822 0.335 0.751 0.553 1.662 0.651 2.735 0.139 1.318 0.098 2.421-0.117 3.313-0.198 0.87-0.444 1.57-0.74 2.097-0.298 0.603-0.706 1.11-1.201 1.512l-0.008 0.006 2.451 8.388h-3.782l-1.803-7.142-0.828 0.151v6.991h-3.721l0.030-21.274h4.224zM32.508 16.945c0.454-0.041 0.828-0.151 1.124-0.335 0.294-0.203 0.54-0.454 0.738-0.759 0.196-0.303 0.333-0.649 0.412-1.033s0.119-0.781 0.119-1.186c0-0.427-0.041-0.841-0.119-1.246-0.074-0.422-0.208-0.799-0.394-1.144l0.010 0.020c-0.173-0.338-0.424-0.615-0.73-0.814l-0.008-0.005c-0.294-0.203-0.678-0.305-1.152-0.305v6.807zM41.745 6.43l1.653 12.826 1.743-12.826h3.723l-3.279 21.274h-4.373l-3.307-21.274h3.84zM49.097 27.703v-21.274h6.942v3.77h-3.132v4.8h3.162v3.951h-3.339v4.8h3.369v3.953h-7.002zM60.922 6.4v17.472h3.189v3.861h-6.852v-21.303l3.663-0.030zM65.018 17.067c0-1.6 0.139-3.051 0.414-4.346 0.277-1.316 0.661-2.441 1.152-3.373 0.493-0.932 1.094-1.651 1.803-2.159 0.641-0.474 1.447-0.758 2.319-0.758s1.678 0.284 2.33 0.766l-0.011-0.008c0.708 0.508 1.31 1.227 1.801 2.159 0.493 0.932 0.877 2.057 1.152 3.373 0.277 1.297 0.414 2.746 0.414 4.346s-0.139 3.059-0.414 4.375c-0.275 1.297-0.659 2.411-1.152 3.343-0.491 0.932-1.092 1.651-1.801 2.159-0.641 0.473-1.447 0.758-2.319 0.758s-1.678-0.284-2.33-0.765l0.011 0.008c-0.708-0.508-1.31-1.227-1.803-2.159-0.491-0.932-0.875-2.046-1.152-3.343-0.264-1.261-0.415-2.709-0.415-4.193 0-0.064 0-0.128 0.001-0.192l-0 0.010zM68.681 17.126c0 1.013 0.049 1.935 0.149 2.767 0.098 0.832 0.235 1.549 0.412 2.157 0.179 0.589 0.384 1.045 0.621 1.367 0.256 0.324 0.533 0.486 0.828 0.486s0.561-0.162 0.798-0.486c0.256-0.324 0.463-0.779 0.619-1.365 0.179-0.61 0.316-1.329 0.414-2.159 0.098-0.832 0.149-1.754 0.149-2.767 0-1.011-0.051-1.933-0.149-2.765-0.084-0.807-0.23-1.539-0.436-2.246l0.022 0.089c-0.156-0.589-0.363-1.045-0.619-1.367-0.237-0.324-0.503-0.486-0.798-0.486-0.297 0-0.572 0.162-0.828 0.486-0.235 0.324-0.442 0.779-0.619 1.365-0.184 0.618-0.33 1.351-0.409 2.104l-0.005 0.055c-0.1 0.832-0.149 1.754-0.149 2.765zM88.559 17.188c0 0.708-0.009 1.468-0.028 2.278 0 0.789-0.051 1.581-0.149 2.37-0.084 0.825-0.239 1.578-0.464 2.301l0.022-0.083c-0.219 0.722-0.552 1.35-0.984 1.896l0.009-0.012c-0.433 0.539-0.977 0.971-1.598 1.266l-0.027 0.012c-0.67 0.324-1.495 0.486-2.481 0.486-1.359 0-2.421-0.243-3.189-0.73-0.754-0.501-1.337-1.206-1.675-2.038l-0.011-0.030c-0.354-0.911-0.57-2.005-0.649-3.281-0.056-1.205-0.088-2.618-0.088-4.038 0-0.077 0-0.153 0-0.23l-0 0.012v-10.97h3.633v10.788c0.019 1.257 0.098 2.37 0.235 3.343 0.060 0.427 0.139 0.841 0.237 1.246 0.098 0.384 0.218 0.74 0.354 1.065 0.158 0.303 0.326 0.555 0.503 0.759 0.167 0.166 0.395 0.269 0.648 0.273h0.001c0.010 0 0.021 0.001 0.033 0.001 0.272 0 0.52-0.104 0.706-0.274l-0.001 0.001c0.218-0.203 0.395-0.457 0.533-0.759 0.151-0.306 0.273-0.663 0.349-1.036l0.005-0.029c0.098-0.405 0.177-0.821 0.235-1.246 0.099-0.832 0.156-1.796 0.156-2.773 0-0.2-0.002-0.4-0.007-0.599l0.001 0.030v-10.758h3.691v10.758zM97.984 6.43c0.021 0 0.032 0.203 0.032 0.608v1.276c0 0.567-0.011 1.205-0.030 1.916-0.61 0-1.231 0.060-1.86 0.181-0.619 0.099-1.176 0.28-1.69 0.534l0.035-0.015c-0.458 0.211-0.849 0.486-1.182 0.819l-0 0c-0.273 0.289-0.442 0.681-0.442 1.111 0 0.005 0 0.009 0 0.014v-0.001c0 0.365 0.128 0.678 0.384 0.943 0.275 0.262 0.599 0.527 0.973 0.789 0.395 0.265 0.819 0.557 1.271 0.881 0.471 0.305 0.896 0.67 1.269 1.094 0.395 0.427 0.719 0.943 0.975 1.551 0.277 0.606 0.414 1.346 0.414 2.219 0 1.295-0.235 2.411-0.708 3.341-0.457 0.917-1.096 1.681-1.874 2.269l-0.016 0.012c-0.789 0.587-1.713 1.024-2.778 1.306-0.992 0.271-2.13 0.427-3.305 0.427-0.021 0-0.043-0-0.064-0h0.003v-3.797c0.354 0 0.817-0.064 1.387-0.183 0.572-0.122 1.122-0.324 1.655-0.608 0.55-0.284 1.024-0.659 1.417-1.124 0.395-0.467 0.582-1.045 0.561-1.732 0-0.346-0.128-0.64-0.384-0.881-0.286-0.286-0.605-0.538-0.953-0.749l-0.022-0.013c-0.254-0.185-0.648-0.455-1.047-0.718l-0.162-0.101c-0.464-0.331-0.871-0.691-1.237-1.089l-0.005-0.006c-0.376-0.453-0.694-0.974-0.93-1.538l-0.015-0.041c-0.235-0.61-0.354-1.359-0.354-2.251 0-0.932 0.256-1.792 0.768-2.581 0.533-0.791 1.212-1.472 2.039-2.037 0.798-0.549 1.718-1.004 2.701-1.317l0.074-0.020c1.045-0.324 2.078-0.486 3.102-0.486zM114.569 6.43l3.070 21.274h-3.678l-0.405-3.283h-2.835l-0.433 3.283h-3.62l3.040-21.274h4.864zM113.182 21.018l-1.045-8.934-0.981 8.934h2.027zM121.199 6.4c0.926 0 1.728 0.181 2.402 0.546 0.676 0.365 1.254 0.853 1.737 1.459 0.484 0.608 0.879 1.316 1.188 2.127 0.309 0.789 0.55 1.611 0.725 2.462 0.171 0.851 0.288 1.713 0.346 2.583 0.077 0.851 0.115 1.643 0.115 2.37 0 1.621-0.164 2.987-0.491 4.102-0.309 1.114-0.715 2.027-1.216 2.735-0.427 0.649-0.936 1.201-1.521 1.661l-0.015 0.011c-0.909 0.678-2.030 1.12-3.249 1.215l-0.022 0.001h-3.561l0.058-21.274h3.503zM121.257 24.45l0.203-0.030c0.198-0.043 0.373-0.117 0.529-0.217l-0.006 0.004c0.23-0.141 0.471-0.354 0.723-0.638 0.269-0.284 0.512-0.687 0.723-1.216 0.23-0.525 0.414-1.184 0.55-1.973 0.154-0.811 0.23-1.805 0.23-2.978-0.002-0.424-0.012-0.839-0.030-1.251l0.002 0.065c-0.025-0.574-0.077-1.108-0.155-1.634l0.010 0.085c-0.068-0.625-0.17-1.183-0.308-1.727l0.018 0.084c-0.138-0.566-0.327-1.062-0.568-1.526l0.018 0.037c-0.194-0.422-0.468-0.777-0.806-1.059l-0.005-0.004c-0.306-0.265-0.707-0.427-1.147-0.427-0.014 0-0.028 0-0.041 0l0.002-0 0.058 14.404zM132.405 6.43l1.621 12.826 1.707-12.826h3.648l-3.213 21.274h-4.286l-3.243-21.274h3.765zM139.61 27.703v-21.274h6.803v3.77h-3.068v4.8h3.095v3.951h-3.27v4.8h3.3v3.953h-6.861zM147.58 27.703v-21.274h3.618l3.098 11.002v-11.002h3.706v21.274h-3.706l-3.127-10.15v10.18l-3.588-0.030zM170.208 6.43v3.861h-3.648v17.412h-3.561v-17.414h-3.908v-3.859h11.115zM182.807 17.188c0 0.708-0.011 1.468-0.030 2.278 0 0.789-0.047 1.581-0.143 2.37-0.079 0.77-0.222 1.51-0.435 2.219-0.213 0.71-0.531 1.338-0.956 1.884-0.423 0.538-0.955 0.969-1.565 1.266l-0.026 0.012c-0.657 0.324-1.468 0.486-2.432 0.486-1.331 0-2.372-0.243-3.125-0.73-0.741-0.504-1.313-1.209-1.641-2.037l-0.010-0.030c-0.348-0.911-0.559-2.005-0.636-3.281-0.056-1.216-0.088-2.641-0.088-4.073 0-0.064 0-0.128 0-0.192v0.010-10.97h3.561v10.788c0.021 1.257 0.096 2.37 0.233 3.343 0.058 0.427 0.134 0.841 0.23 1.246 0.096 0.384 0.213 0.74 0.348 1.065 0.154 0.303 0.32 0.555 0.491 0.759 0.194 0.181 0.405 0.273 0.64 0.273 0.009 0 0.019 0 0.029 0 0.268 0 0.512-0.104 0.693-0.274l-0.001 0c0.213-0.203 0.386-0.457 0.523-0.759 0.154-0.324 0.269-0.681 0.346-1.065 0.098-0.405 0.175-0.821 0.235-1.246 0.113-0.973 0.162-2.086 0.143-3.343v-10.758h3.618v10.758zM187.819 6.43c0.676 0 1.312 0.111 1.911 0.335 0.619 0.222 1.167 0.576 1.649 1.065 0.482 0.465 0.879 1.073 1.186 1.822 0.329 0.751 0.542 1.662 0.638 2.735 0.134 1.318 0.096 2.421-0.115 3.313-0.192 0.87-0.435 1.57-0.725 2.097-0.326 0.649-0.723 1.154-1.186 1.519l2.402 8.388h-3.703l-1.766-7.142-0.811 0.151v6.991h-3.648l0.030-21.274h4.139zM187.298 16.945c0.444-0.041 0.811-0.151 1.099-0.335 0.29-0.203 0.533-0.454 0.725-0.759 0.192-0.303 0.326-0.649 0.405-1.033 0.077-0.384 0.115-0.781 0.115-1.186 0-0.427-0.038-0.841-0.115-1.246-0.073-0.422-0.204-0.799-0.388-1.145l0.010 0.021c-0.169-0.337-0.415-0.614-0.716-0.814l-0.008-0.005c-0.29-0.203-0.666-0.305-1.131-0.305v6.807z"></path>
<path fill="#fafafa" style="fill: var(--color2, #fafafa)" d="M192.587 27.703v-21.274h6.803v3.77h-3.070v4.8h3.098v3.951h-3.27v4.8h3.3v3.953h-6.861zM208.922 6.43c0.021 0 0.030 0.203 0.030 0.608v1.276c0 0.567-0.011 1.205-0.030 1.916-0.597 0-1.205 0.060-1.824 0.181-0.607 0.1-1.152 0.28-1.654 0.533l0.033-0.015c-0.448 0.211-0.831 0.486-1.156 0.818l-0.001 0.001c-0.27 0.291-0.435 0.682-0.435 1.111 0 0.005 0 0.009 0 0.014v-0.001c0 0.365 0.126 0.678 0.378 0.943 0.269 0.262 0.587 0.527 0.954 0.789 0.386 0.265 0.802 0.557 1.246 0.881 0.463 0.305 0.877 0.67 1.244 1.094 0.386 0.427 0.704 0.943 0.956 1.551 0.271 0.606 0.405 1.346 0.405 2.219 0 1.295-0.233 2.411-0.695 3.341-0.445 0.915-1.071 1.678-1.837 2.27l-0.015 0.011c-0.772 0.587-1.679 1.024-2.722 1.306-1.041 0.284-2.142 0.427-3.298 0.427v-3.797c0.346 0 0.8-0.064 1.359-0.183 0.561-0.122 1.101-0.324 1.621-0.608 0.54-0.284 1.003-0.659 1.389-1.124 0.386-0.467 0.57-1.045 0.55-1.732 0-0.346-0.126-0.64-0.375-0.881-0.28-0.286-0.594-0.538-0.935-0.749l-0.021-0.012c-0.257-0.19-0.644-0.46-1.035-0.723l-0.151-0.096c-0.454-0.331-0.852-0.69-1.21-1.087l-0.006-0.007c-0.369-0.454-0.68-0.975-0.911-1.537l-0.015-0.041c-0.233-0.61-0.348-1.359-0.348-2.251 0-0.932 0.25-1.792 0.753-2.581 0.521-0.791 1.186-1.472 1.997-2.037 0.781-0.549 1.683-1.004 2.648-1.317l0.072-0.020c1.024-0.324 2.037-0.486 3.040-0.486z"></path>
<path fill="#fafafa" style="fill: var(--color2, #fafafa)" d="M206.933 2.133h-98.133v-2.133h98.133v2.133zM206.933 32h-98.133v-2.133h98.133v2.133z"></path>
</symbol>
</defs>
</svg>
