<svg aria-hidden="true" style="position: absolute; width: 0; height: 0; overflow: hidden;" version="1.1" xmlns="http://www.w3.org/2000/svg" xmlns:xlink="http://www.w3.org/1999/xlink">
<defs>
<symbol id="icon-twitter" viewBox="0 0 32 32">
<path stroke-linejoin="round" stroke-linecap="round" stroke-miterlimit="4" stroke-width="3.2" d="M30.667 4c-1.277 0.901-2.691 1.589-4.187 2.040-0.803-0.923-1.87-1.578-3.057-1.875s-2.437-0.222-3.58 0.214c-1.143 0.436-2.125 1.213-2.812 2.226s-1.047 2.211-1.031 3.435v1.333c-2.343 0.061-4.665-0.459-6.759-1.513s-4.339-3.563-5.686-5.481c0 0-4.889 12.954 7.111 18.287-2.746 1.864-6.017 2.799-9.333 2.667 12 6.667 26.667 0 26.667-15.333-0.001-0.371-0.037-0.742-0.107-1.107 1.361-1.342 2.321-3.036 2.773-4.893z"></path>
</symbol>
<symbol id="search" viewBox="0 0 24 24">
<path d="M16.041 15.856c-0.034 0.026-0.067 0.055-0.099 0.087s-0.060 0.064-0.087 0.099c-1.258 1.213-2.969 1.958-4.855 1.958-1.933 0-3.682-0.782-4.95-2.050s-2.050-3.017-2.050-4.95 0.782-3.682 2.050-4.95 3.017-2.050 4.95-2.050 3.682 0.782 4.95 2.050 2.050 3.017 2.050 4.95c0 1.886-0.745 3.597-1.959 4.856zM21.707 20.293l-3.675-3.675c1.231-1.54 1.968-3.493 1.968-5.618 0-2.485-1.008-4.736-2.636-6.364s-3.879-2.636-6.364-2.636-4.736 1.008-6.364 2.636-2.636 3.879-2.636 6.364 1.008 4.736 2.636 6.364 3.879 2.636 6.364 2.636c2.125 0 4.078-0.737 5.618-1.968l3.675 3.675c0.391 0.391 1.024 0.391 1.414 0s0.391-1.024 0-1.414z"></path>
</symbol>
<symbol id="icon-instagram" viewBox="0 0 32 32">
<path d="M23.983 6.229c-0.354 0-0.701 0.105-0.996 0.302s-0.524 0.477-0.66 0.804c-0.136 0.327-0.171 0.688-0.102 1.035s0.24 0.667 0.491 0.918c0.251 0.251 0.57 0.421 0.917 0.49s0.708 0.034 1.035-0.102c0.328-0.136 0.607-0.365 0.804-0.66s0.302-0.641 0.302-0.996c0-0.475-0.189-0.931-0.525-1.267s-0.792-0.525-1.267-0.525zM30.852 9.843c-0.029-1.239-0.261-2.465-0.687-3.629-0.38-0.996-0.971-1.898-1.732-2.643-0.739-0.765-1.643-1.353-2.643-1.717-1.161-0.439-2.388-0.676-3.629-0.702-1.583-0.090-2.091-0.090-6.152-0.090s-4.57 0-6.152 0.090c-1.241 0.026-2.468 0.263-3.629 0.702-0.998 0.368-1.901 0.955-2.643 1.717-0.765 0.739-1.353 1.643-1.717 2.643-0.439 1.161-0.676 2.388-0.702 3.629-0.090 1.583-0.090 2.091-0.090 6.153s0 4.57 0.090 6.152c0.026 1.241 0.263 2.468 0.702 3.629 0.365 1 0.952 1.904 1.717 2.643 0.742 0.762 1.645 1.349 2.643 1.717 1.161 0.439 2.388 0.676 3.629 0.702 1.583 0.090 2.091 0.090 6.152 0.090s4.57 0 6.152-0.090c1.241-0.026 2.468-0.263 3.629-0.702 1-0.365 1.904-0.952 2.643-1.717 0.765-0.743 1.356-1.645 1.732-2.643 0.426-1.164 0.658-2.39 0.687-3.629 0-1.583 0.090-2.091 0.090-6.152s0-4.57-0.090-6.153zM28.164 21.969c-0.011 0.948-0.183 1.887-0.508 2.778-0.238 0.65-0.621 1.237-1.12 1.717-0.484 0.493-1.070 0.876-1.717 1.12-0.891 0.325-1.83 0.497-2.778 0.508-1.493 0.075-2.046 0.090-5.973 0.090s-4.48 0-5.973-0.090c-0.984 0.018-1.964-0.133-2.897-0.448-0.619-0.257-1.178-0.638-1.643-1.12-0.496-0.48-0.874-1.068-1.105-1.717-0.365-0.903-0.567-1.864-0.597-2.837 0-1.493-0.090-2.046-0.090-5.973s0-4.48 0.090-5.973c0.007-0.969 0.184-1.929 0.523-2.837 0.263-0.63 0.666-1.192 1.18-1.643 0.454-0.513 1.014-0.921 1.643-1.195 0.91-0.328 1.87-0.5 2.837-0.508 1.493 0 2.046-0.090 5.973-0.090s4.48 0 5.973 0.090c0.948 0.011 1.887 0.183 2.778 0.508 0.679 0.252 1.288 0.661 1.777 1.195 0.489 0.459 0.872 1.020 1.12 1.643 0.332 0.909 0.504 1.869 0.508 2.837 0.075 1.493 0.090 2.046 0.090 5.973s-0.015 4.48-0.090 5.973zM16.008 8.335c-1.514 0.003-2.994 0.455-4.252 1.298s-2.237 2.041-2.815 3.441c-0.578 1.4-0.727 2.94-0.43 4.425s1.028 2.849 2.1 3.919c1.072 1.070 2.437 1.798 3.923 2.092s3.025 0.142 4.424-0.439c1.399-0.58 2.595-1.562 3.436-2.822s1.29-2.74 1.29-4.255c0.002-1.008-0.195-2.006-0.58-2.937s-0.951-1.777-1.664-2.489c-0.713-0.712-1.56-1.276-2.492-1.659s-1.931-0.579-2.939-0.575zM16.008 20.969c-0.983 0-1.945-0.292-2.763-0.838s-1.455-1.323-1.832-2.232c-0.376-0.909-0.475-1.909-0.283-2.873s0.665-1.851 1.361-2.546c0.695-0.695 1.582-1.169 2.546-1.361s1.965-0.093 2.873 0.283 1.685 1.014 2.232 1.832c0.546 0.818 0.838 1.779 0.838 2.763 0 0.653-0.129 1.3-0.379 1.903s-0.616 1.152-1.078 1.613c-0.462 0.462-1.010 0.828-1.613 1.078s-1.25 0.379-1.903 0.379z"></path>
</symbol>
<symbol id="icon-facebook" viewBox="0 0 18 32">
<path d="M14.45 5.602h2.924v-4.947c-1.416-0.147-2.839-0.22-4.262-0.218-4.231 0-7.124 2.582-7.124 7.311v4.076h-4.776v5.538h4.776v14.187h5.724v-14.187h4.76l0.716-5.538h-5.476v-3.531c0-1.633 0.436-2.691 2.738-2.691z"></path>
</symbol>
<!-- <symbol id="icon-logo" viewBox="0 0 209 32"> -->
<symbol id="icon-logo-big" viewBox="0 0 202 32">
<path fill="#ed1d24" style="fill: var(--color1, #ed1d24)" d="M0 0.5h98v31h-98z"></path>
<path fill="#fafafa" style="fill: var(--color2, #fafafa)" d="M4.336 26.5v-19.6h4.48l1.624 10.080 1.596-10.080h4.564v19.628h-3.64v-9.464l-1.596 9.436h-1.876l-1.596-9.352v9.352h-3.556zM24.499 6.9l2.968 19.6h-3.557l-0.392-3.024h-2.744l-0.42 3.024h-3.5l2.94-19.6h4.704zM23.155 20.34l-1.008-8.232-0.952 8.232h1.96zM31.611 6.9c0.654 0 1.27 0.103 1.848 0.308 0.623 0.218 1.156 0.552 1.597 0.981l-0.001-0.001c0.467 0.43 0.85 0.99 1.148 1.68 0.318 0.69 0.523 1.53 0.616 2.52 0.131 1.213 0.094 2.23-0.112 3.052-0.186 0.803-0.42 1.447-0.7 1.932-0.317 0.597-0.7 1.064-1.148 1.4l2.324 7.728h-3.583l-1.708-6.58-0.784 0.14v6.44h-3.528l0.028-19.6h4.004zM31.107 16.588c0.43-0.037 0.784-0.14 1.064-0.308 0.28-0.187 0.513-0.42 0.694-0.691l0.006-0.009c0.187-0.28 0.318-0.597 0.392-0.952s0.112-0.719 0.112-1.092c0-0.392-0.037-0.775-0.112-1.148-0.070-0.389-0.197-0.737-0.373-1.053l0.009 0.017c-0.165-0.314-0.403-0.569-0.692-0.751l-0.008-0.005c-0.28-0.187-0.644-0.28-1.092-0.28v6.272zM39.863 6.9l1.568 11.816 1.652-11.816h3.528l-3.108 19.6h-4.143l-3.137-19.6h3.64zM46.833 26.5v-19.6h6.58v3.472h-2.968v4.424h2.996v3.64h-3.164v4.424h3.192v3.64h-6.636zM58.041 6.872v16.1h3.024v3.556h-6.496v-19.628l3.472-0.028zM61.925 16.7c0-1.475 0.13-2.81 0.392-4.004 0.261-1.213 0.626-2.25 1.092-3.108s1.036-1.521 1.708-1.988 1.41-0.7 2.212-0.7c0.803 0 1.53 0.233 2.184 0.7 0.672 0.467 1.241 1.13 1.708 1.988 0.467 0.859 0.83 1.895 1.092 3.108 0.261 1.195 0.392 2.53 0.392 4.004 0 1.475-0.13 2.819-0.392 4.032-0.261 1.195-0.625 2.221-1.092 3.080s-1.036 1.521-1.708 1.988c-0.597 0.438-1.346 0.7-2.156 0.7-0.010 0-0.020-0-0.029-0h0.001c-0.802 0-1.54-0.233-2.212-0.7s-1.241-1.13-1.708-1.988c-0.466-0.859-0.83-1.885-1.092-3.080-0.261-1.213-0.392-2.557-0.392-4.032zM65.397 16.756c0 0.933 0.047 1.783 0.14 2.548s0.224 1.428 0.392 1.988c0.168 0.541 0.364 0.961 0.588 1.26 0.243 0.299 0.504 0.448 0.784 0.448s0.532-0.15 0.756-0.448c0.243-0.299 0.439-0.719 0.588-1.26 0.168-0.56 0.299-1.223 0.392-1.988s0.14-1.615 0.14-2.548-0.047-1.783-0.14-2.548c-0.093-0.784-0.224-1.447-0.392-1.988-0.15-0.541-0.345-0.961-0.588-1.26-0.224-0.299-0.476-0.448-0.756-0.448s-0.541 0.15-0.784 0.448c-0.224 0.299-0.42 0.719-0.588 1.26s-0.299 1.204-0.392 1.988c-0.093 0.765-0.14 1.615-0.14 2.548zM84.24 16.812c0 0.653-0.008 1.353-0.027 2.1 0 0.728-0.047 1.456-0.14 2.184-0.075 0.71-0.215 1.39-0.42 2.044-0.208 0.667-0.524 1.245-0.931 1.745l0.007-0.009c-0.392 0.485-0.905 0.877-1.54 1.176s-1.419 0.448-2.352 0.448c-1.288 0-2.296-0.224-3.024-0.672-0.71-0.448-1.241-1.083-1.596-1.904-0.336-0.84-0.541-1.848-0.616-3.024-0.054-1.116-0.084-2.423-0.084-3.738 0-0.064 0-0.128 0-0.192l-0 0.010v-10.108h3.444v9.94c0.019 1.157 0.093 2.184 0.224 3.080 0.056 0.392 0.13 0.775 0.224 1.148 0.093 0.355 0.205 0.681 0.336 0.98 0.15 0.28 0.308 0.513 0.476 0.7 0.16 0.154 0.376 0.25 0.616 0.252h0c0.28 0 0.513-0.084 0.7-0.252 0.205-0.187 0.373-0.42 0.504-0.7 0.15-0.299 0.261-0.625 0.336-0.98 0.093-0.373 0.168-0.756 0.224-1.148 0.112-0.896 0.159-1.923 0.14-3.080v-9.912h3.5v9.912zM93.176 6.9c0.019 0 0.028 0.187 0.028 0.56v1.176c0 0.523-0.010 1.11-0.028 1.764-0.579 0-1.167 0.056-1.764 0.168-0.586 0.091-1.113 0.257-1.602 0.491l0.034-0.015c-0.433 0.194-0.804 0.448-1.121 0.757l0.001-0.001c-0.26 0.265-0.42 0.628-0.42 1.029 0 0.003 0 0.005 0 0.008v-0c0 0.336 0.121 0.625 0.364 0.868 0.261 0.243 0.57 0.485 0.924 0.728 0.373 0.243 0.775 0.513 1.204 0.812 0.448 0.28 0.85 0.616 1.204 1.008 0.373 0.392 0.681 0.868 0.924 1.428 0.261 0.56 0.392 1.241 0.392 2.044 0 1.195-0.224 2.221-0.672 3.080-0.436 0.847-1.041 1.551-1.775 2.088l-0.017 0.012c-0.747 0.541-1.624 0.943-2.632 1.204-0.939 0.249-2.017 0.392-3.129 0.392-0.022 0-0.045-0-0.067-0h0.003v-3.5c0.336 0 0.775-0.056 1.316-0.168 0.592-0.125 1.116-0.319 1.601-0.576l-0.033 0.016c0.523-0.261 0.97-0.607 1.344-1.036s0.55-0.961 0.532-1.596c0-0.317-0.121-0.588-0.364-0.812-0.271-0.263-0.574-0.494-0.902-0.688l-0.022-0.012c-0.232-0.165-0.606-0.414-0.984-0.658l-0.164-0.098c-0.44-0.305-0.825-0.637-1.173-1.005l-0.003-0.003c-0.357-0.418-0.657-0.898-0.882-1.419l-0.014-0.037c-0.224-0.56-0.336-1.25-0.336-2.072 0-0.859 0.243-1.652 0.728-2.38 0.525-0.746 1.167-1.37 1.906-1.86l0.026-0.016c0.757-0.506 1.63-0.926 2.561-1.213l0.071-0.019c0.99-0.299 1.97-0.448 2.94-0.448zM109.784 6.9l2.968 19.6h-3.556l-0.392-3.024h-2.744l-0.42 3.024h-3.5l2.94-19.6h4.704zM108.44 20.34l-1.008-8.232-0.952 8.232h1.96zM116.197 6.872c0.896 0 1.67 0.168 2.324 0.504 0.662 0.343 1.22 0.794 1.673 1.336l0.007 0.008c0.466 0.56 0.849 1.213 1.148 1.96 0.298 0.728 0.532 1.484 0.7 2.268s0.28 1.577 0.336 2.38c0.074 0.784 0.112 1.512 0.112 2.184 0 1.493-0.159 2.753-0.476 3.78-0.299 1.027-0.691 1.867-1.176 2.52-0.467 0.653-0.962 1.167-1.484 1.54-0.887 0.628-1.971 1.034-3.144 1.119l-0.020 0.001h-3.444l0.056-19.6h3.388zM116.253 23.504l0.196-0.028c0.13-0.019 0.298-0.084 0.504-0.196 0.268-0.167 0.498-0.362 0.697-0.585l0.003-0.003c0.261-0.261 0.494-0.635 0.7-1.12 0.224-0.485 0.401-1.092 0.532-1.82 0.149-0.747 0.224-1.661 0.224-2.744 0-0.28-0.010-0.644-0.028-1.092-0.025-0.53-0.075-1.022-0.15-1.506l0.010 0.078c-0.066-0.575-0.164-1.089-0.297-1.588l0.017 0.076c-0.134-0.522-0.316-0.978-0.548-1.403l0.016 0.031c-0.19-0.391-0.455-0.719-0.778-0.976l-0.006-0.004c-0.318-0.261-0.7-0.392-1.148-0.392l0.056 13.272zM127.035 6.9l1.568 11.816 1.652-11.816h3.528l-3.108 19.6h-4.144l-3.136-19.6h3.64zM134.005 26.5v-19.6h6.58v3.472h-2.968v4.424h2.996v3.64h-3.164v4.424h3.192v3.64h-6.636zM141.713 26.5v-19.6h3.5l2.996 10.136v-10.136h3.584v19.6h-3.584l-3.024-9.352v9.38l-3.472-0.028zM163.601 6.9v3.556h-3.528v16.044h-3.444v-16.044h-3.78v-3.556h10.752zM175.788 16.812c0 0.653-0.009 1.353-0.028 2.1 0 0.728-0.047 1.456-0.14 2.184-0.075 0.71-0.215 1.39-0.42 2.044-0.208 0.667-0.524 1.245-0.931 1.745l0.007-0.009c-0.392 0.485-0.905 0.877-1.54 1.176s-1.419 0.448-2.352 0.448c-1.288 0-2.296-0.224-3.024-0.672-0.709-0.448-1.241-1.083-1.596-1.904-0.336-0.84-0.541-1.848-0.616-3.024-0.054-1.116-0.084-2.423-0.084-3.738 0-0.064 0-0.128 0-0.192l-0 0.010v-10.108h3.444v9.94c0.019 1.157 0.093 2.184 0.224 3.080 0.056 0.392 0.131 0.775 0.224 1.148 0.093 0.355 0.205 0.681 0.336 0.98 0.149 0.28 0.308 0.513 0.476 0.7 0.16 0.154 0.376 0.249 0.615 0.252h0c0.28 0 0.513-0.084 0.7-0.252 0.205-0.187 0.373-0.42 0.504-0.7 0.149-0.299 0.261-0.625 0.336-0.98 0.093-0.373 0.168-0.756 0.224-1.148 0.112-0.896 0.159-1.923 0.14-3.080v-9.912h3.5v9.912zM180.635 6.9c0.653 0 1.269 0.103 1.848 0.308 0.623 0.218 1.156 0.553 1.597 0.981l-0.001-0.001c0.467 0.43 0.849 0.99 1.148 1.68 0.317 0.69 0.523 1.53 0.616 2.52 0.131 1.213 0.093 2.23-0.112 3.052-0.187 0.803-0.42 1.447-0.7 1.932-0.317 0.597-0.7 1.064-1.148 1.4l2.324 7.728h-3.584l-1.708-6.58-0.784 0.14v6.44h-3.528l0.028-19.6h4.004zM180.131 16.588c0.429-0.037 0.784-0.14 1.064-0.308 0.28-0.187 0.513-0.42 0.7-0.7 0.182-0.272 0.318-0.591 0.389-0.934l0.003-0.018c0.075-0.355 0.112-0.719 0.112-1.092 0-0.392-0.037-0.775-0.112-1.148-0.071-0.389-0.197-0.737-0.373-1.053l0.009 0.017c-0.165-0.314-0.403-0.569-0.692-0.751l-0.008-0.005c-0.28-0.187-0.644-0.28-1.092-0.28v6.272z"></path>
<path fill="#fafafa" style="fill: var(--color2, #fafafa)" d="M185.247 26.5v-19.6h6.58v3.472h-2.968v4.424h2.996v3.64h-3.164v4.424h3.192v3.64h-6.636zM201.047 6.9c0.019 0 0.028 0.187 0.028 0.56v1.176c0 0.523-0.009 1.11-0.028 1.764-0.578 0-1.166 0.056-1.764 0.168-0.586 0.091-1.113 0.257-1.602 0.491l0.034-0.015c-0.433 0.194-0.804 0.448-1.121 0.757l0.001-0.001c-0.26 0.265-0.42 0.628-0.42 1.029 0 0.003 0 0.005 0 0.008v-0c0 0.336 0.122 0.625 0.364 0.868 0.262 0.243 0.57 0.485 0.924 0.728 0.374 0.243 0.775 0.513 1.204 0.812 0.448 0.28 0.85 0.616 1.204 1.008 0.374 0.392 0.682 0.868 0.924 1.428 0.262 0.56 0.392 1.241 0.392 2.044 0 1.195-0.224 2.221-0.672 3.080-0.436 0.847-1.041 1.551-1.775 2.088l-0.017 0.012c-0.746 0.541-1.624 0.943-2.632 1.204-0.939 0.249-2.017 0.392-3.129 0.392-0.022 0-0.045-0-0.067-0h0.003v-3.5c0.336 0 0.775-0.056 1.316-0.168 0.592-0.125 1.116-0.319 1.601-0.576l-0.033 0.016c0.527-0.264 0.973-0.612 1.34-1.031l0.004-0.005c0.374-0.43 0.551-0.961 0.532-1.596 0-0.317-0.121-0.588-0.364-0.812-0.27-0.263-0.573-0.495-0.902-0.688l-0.022-0.012c-0.237-0.169-0.611-0.418-0.99-0.661l-0.158-0.095c-0.44-0.306-0.825-0.637-1.173-1.005l-0.003-0.003c-0.356-0.418-0.657-0.898-0.882-1.419l-0.014-0.037c-0.224-0.56-0.336-1.25-0.336-2.072 0-0.859 0.243-1.652 0.728-2.38 0.525-0.746 1.167-1.37 1.906-1.86l0.026-0.016c0.757-0.506 1.63-0.926 2.561-1.213l0.071-0.019c0.879-0.28 1.889-0.444 2.938-0.448h0.002z"></path>
<path fill="none" stroke="#fafafa" style="stroke: var(--color2, #fafafa)" stroke-linejoin="miter" stroke-linecap="butt" stroke-miterlimit="4" stroke-width="1" d="M104 1.5h96M104 31.5h96"></path>
</symbol>
<symbol id="icon-logo" viewBox="0 0 202 32"><path fill="#ed1d24" d="M0 .5h98v31H0V.5z" style="fill:var(--color1, #ed1d24)"/>
<path fill="#fafafa" d="M4.336 26.5V6.9h4.48l1.624 10.08L12.036 6.9H16.6v19.628h-3.64v-9.464L11.364 26.5H9.488l-1.596-9.352V26.5H4.336zM24.499 6.9l2.968 19.6h-3.556l-.392-3.024h-2.744l-.42 3.024h-3.5l2.94-19.6h4.704zm-1.344 13.44-1.008-8.232-.952 8.232h1.96zM31.611 6.9c.653 0 1.269.103 1.848.308.597.205 1.129.532 1.596.98.467.429.849.989 1.148 1.68.317.691.523 1.531.616 2.52.131 1.213.093 2.231-.112 3.052-.187.803-.42 1.447-.7 1.932-.317.597-.7 1.064-1.148 1.4l2.324 7.728h-3.584l-1.708-6.58-.784.14v6.44h-3.528l.028-19.6h4.004zm-.504 9.688c.429-.037.784-.14 1.064-.308.28-.187.513-.42.7-.7s.317-.597.392-.952c.075-.355.112-.719.112-1.092 0-.392-.037-.775-.112-1.148-.075-.392-.196-.737-.364-1.036-.168-.317-.401-.569-.7-.756-.28-.187-.644-.28-1.092-.28v6.272zM39.863 6.9l1.568 11.816L43.083 6.9h3.528l-3.108 19.6h-4.144L36.223 6.9h3.64zM46.833 26.5V6.9h6.58v3.472h-2.968v4.424h2.996v3.64h-3.164v4.424h3.192v3.64h-6.636zM58.041 6.872v16.1h3.024v3.556h-6.496V6.9l3.472-.028zM61.925 16.7c0-1.475.131-2.809.392-4.004.261-1.213.625-2.249 1.092-3.108s1.036-1.521 1.708-1.988 1.409-.7 2.212-.7c.803 0 1.531.233 2.184.7.672.467 1.241 1.129 1.708 1.988s.831 1.895 1.092 3.108c.261 1.195.392 2.529.392 4.004s-.131 2.819-.392 4.032c-.261 1.195-.625 2.221-1.092 3.08s-1.036 1.521-1.708 1.988c-.653.467-1.381.7-2.184.7s-1.54-.233-2.212-.7-1.241-1.129-1.708-1.988c-.467-.859-.831-1.885-1.092-3.08-.261-1.213-.392-2.557-.392-4.032zm3.472.056c0 .933.047 1.783.14 2.548s.224 1.428.392 1.988c.168.541.364.961.588 1.26.243.299.504.448.784.448s.532-.149.756-.448c.243-.299.439-.719.588-1.26.168-.56.299-1.223.392-1.988s.14-1.615.14-2.548-.047-1.783-.14-2.548c-.093-.784-.224-1.447-.392-1.988-.149-.541-.345-.961-.588-1.26-.224-.299-.476-.448-.756-.448s-.541.149-.784.448c-.224.299-.42.719-.588 1.26s-.299 1.204-.392 1.988c-.093.765-.14 1.615-.14 2.548zM84.241 16.812c0 .653-.009 1.353-.028 2.1 0 .728-.047 1.456-.14 2.184-.075.709-.215 1.391-.42 2.044s-.513 1.232-.924 1.736c-.392.485-.905.877-1.54 1.176s-1.419.448-2.352.448c-1.288 0-2.296-.224-3.024-.672-.709-.448-1.241-1.083-1.596-1.904-.336-.84-.541-1.848-.616-3.024-.056-1.176-.084-2.483-.084-3.92V6.872h3.444v9.94c.019 1.157.093 2.184.224 3.08.056.392.131.775.224 1.148.093.355.205.681.336.98.149.28.308.513.476.7.187.168.392.252.616.252.28 0 .513-.084.7-.252.205-.187.373-.42.504-.7.149-.299.261-.625.336-.98.093-.373.168-.756.224-1.148.112-.896.159-1.923.14-3.08V6.9h3.5v9.912zM93.176 6.9c.019 0 .028.187.028.56v1.176c0 .523-.009 1.111-.028 1.764-.579 0-1.167.056-1.764.168-.579.093-1.101.252-1.568.476-.448.205-.821.457-1.12.756-.28.299-.42.644-.42 1.036 0 .336.121.625.364.868.261.243.569.485.924.728.373.243.775.513 1.204.812.448.28.849.616 1.204 1.008.373.392.681.868.924 1.428.261.56.392 1.241.392 2.044 0 1.195-.224 2.221-.672 3.08-.429.84-1.027 1.54-1.792 2.1-.747.541-1.624.943-2.632 1.204s-2.072.392-3.192.392V23c.336 0 .775-.056 1.316-.168s1.064-.299 1.568-.56c.523-.261.971-.607 1.344-1.036s.551-.961.532-1.596c0-.317-.121-.588-.364-.812-.243-.243-.551-.476-.924-.7-.355-.243-.737-.495-1.148-.756-.411-.28-.803-.616-1.176-1.008-.355-.411-.653-.896-.896-1.456-.224-.56-.336-1.251-.336-2.072 0-.859.243-1.652.728-2.38.504-.728 1.148-1.353 1.932-1.876s1.661-.933 2.632-1.232c.989-.299 1.969-.448 2.94-.448zM109.784 6.9l2.968 19.6h-3.556l-.392-3.024h-2.744l-.42 3.024h-3.5l2.94-19.6h4.704zm-1.344 13.44-1.008-8.232-.952 8.232h1.96zM116.197 6.872c.896 0 1.67.168 2.324.504s1.213.784 1.68 1.344c.466.56.849 1.213 1.148 1.96.298.728.532 1.484.7 2.268s.28 1.577.336 2.38c.074.784.112 1.512.112 2.184 0 1.493-.159 2.753-.476 3.78-.299 1.027-.691 1.867-1.176 2.52-.467.653-.962 1.167-1.484 1.54-.934.653-1.988 1.027-3.164 1.12h-3.444l.056-19.6h3.388zm.056 16.632s.065-.009.196-.028c.13-.019.298-.084.504-.196.224-.131.457-.327.7-.588.261-.261.494-.635.7-1.12.224-.485.401-1.092.532-1.82.149-.747.224-1.661.224-2.744 0-.28-.01-.644-.028-1.092-.019-.448-.066-.924-.14-1.428-.056-.504-.15-1.008-.28-1.512-.131-.504-.308-.961-.532-1.372-.206-.411-.467-.737-.784-.98-.318-.261-.7-.392-1.148-.392l.056 13.272zM127.035 6.9l1.568 11.816L130.255 6.9h3.528l-3.108 19.6h-4.144l-3.136-19.6h3.64zM134.005 26.5V6.9h6.58v3.472h-2.968v4.424h2.996v3.64h-3.164v4.424h3.192v3.64h-6.636zM141.713 26.5V6.9h3.5l2.996 10.136V6.9h3.584v19.6h-3.584l-3.024-9.352v9.38l-3.472-.028zM163.601 6.9v3.556h-3.528V26.5h-3.444V10.456h-3.78V6.9h10.752zM175.788 16.812c0 .653-.009 1.353-.028 2.1 0 .728-.047 1.456-.14 2.184-.075.709-.215 1.391-.42 2.044s-.513 1.232-.924 1.736c-.392.485-.905.877-1.54 1.176s-1.419.448-2.352.448c-1.288 0-2.296-.224-3.024-.672-.709-.448-1.241-1.083-1.596-1.904-.336-.84-.541-1.848-.616-3.024-.056-1.176-.084-2.483-.084-3.92V6.872h3.444v9.94c.019 1.157.093 2.184.224 3.08.056.392.131.775.224 1.148.093.355.205.681.336.98.149.28.308.513.476.7.187.168.392.252.616.252.28 0 .513-.084.7-.252.205-.187.373-.42.504-.7.149-.299.261-.625.336-.98.093-.373.168-.756.224-1.148.112-.896.159-1.923.14-3.08V6.9h3.5v9.912zM180.635 6.9c.653 0 1.269.103 1.848.308.597.205 1.129.532 1.596.98.467.429.849.989 1.148 1.68.317.691.523 1.531.616 2.52.131 1.213.093 2.231-.112 3.052-.187.803-.42 1.447-.7 1.932-.317.597-.7 1.064-1.148 1.4l2.324 7.728h-3.584l-1.708-6.58-.784.14v6.44h-3.528l.028-19.6h4.004zm-.504 9.688c.429-.037.784-.14 1.064-.308.28-.187.513-.42.7-.7s.317-.597.392-.952c.075-.355.112-.719.112-1.092 0-.392-.037-.775-.112-1.148-.075-.392-.196-.737-.364-1.036-.168-.317-.401-.569-.7-.756-.28-.187-.644-.28-1.092-.28v6.272z" style="fill:var(--color2, #fafafa)"/><path fill="#fafafa" d="M185.247 26.5V6.9h6.58v3.472h-2.968v4.424h2.996v3.64h-3.164v4.424h3.192v3.64h-6.636zM201.047 6.9c.019 0 .028.187.028.56v1.176c0 .523-.009 1.111-.028 1.764-.578 0-1.166.056-1.764.168-.578.093-1.101.252-1.568.476-.448.205-.821.457-1.12.756-.28.299-.42.644-.42 1.036 0 .336.122.625.364.868.262.243.57.485.924.728.374.243.775.513 1.204.812.448.28.85.616 1.204 1.008.374.392.682.868.924 1.428.262.56.392 1.241.392 2.044 0 1.195-.224 2.221-.672 3.08-.429.84-1.026 1.54-1.792 2.1-.746.541-1.624.943-2.632 1.204s-2.072.392-3.192.392V23c.336 0 .775-.056 1.316-.168.542-.112 1.064-.299 1.568-.56.523-.261.971-.607 1.344-1.036.374-.429.551-.961.532-1.596 0-.317-.121-.588-.364-.812-.242-.243-.55-.476-.924-.7-.354-.243-.737-.495-1.148-.756-.41-.28-.802-.616-1.176-1.008-.354-.411-.653-.896-.896-1.456-.224-.56-.336-1.251-.336-2.072 0-.859.243-1.652.728-2.38.504-.728 1.148-1.353 1.932-1.876s1.662-.933 2.632-1.232c.99-.299 1.97-.448 2.94-.448z" style="fill:var(--color2, #fafafa)"/><path fill="none" stroke="#fafafa" d="M104 1.5h96M104 31.5h96" style="stroke:var(--color2, #fafafa)"/></symbol></defs></svg>

<symbol id="icon-arrow" viewBox="0 0 32 32">
<path fill="#34387f" style="fill: var(--color1, #34387f); stroke: var(--color1, #34387f)" stroke="#34387f" stroke-linejoin="miter" stroke-linecap="butt" stroke-miterlimit="4" stroke-width="0.4706" d="M27.454 7.096l-23.972 23.962-2.541-2.541 23.962-23.981h-23.962v-3.595h30.118v30.118h-3.605v-23.962z"></path>
</symbol>
<path fill="#ed1d24" style="fill: var(--color1, #ed1d24)" d="M0 0h100.267v32h-100.267v-32z"></path>
<path fill="#fafafa" style="fill: var(--color2, #fafafa)" d="M4.267 27.703v-21.274h4.725l1.713 10.94 1.685-10.94h4.813v21.303h-3.84v-10.272l-1.683 10.24h-1.978l-1.685-10.148v10.15h-3.75zM25.536 6.43l3.132 21.274h-3.75l-0.414-3.283h-2.895l-0.444 3.283h-3.691l3.1-21.274h4.962zM24.119 21.018l-1.065-8.934-1.003 8.934h2.067zM33.041 6.43c0.689 0 1.338 0.111 1.948 0.335 0.631 0.222 1.193 0.576 1.685 1.065 0.491 0.465 0.896 1.073 1.21 1.822 0.335 0.751 0.553 1.662 0.651 2.735 0.139 1.318 0.098 2.421-0.117 3.313-0.198 0.87-0.444 1.57-0.74 2.097-0.298 0.603-0.706 1.11-1.201 1.512l-0.008 0.006 2.451 8.388h-3.782l-1.803-7.142-0.828 0.151v6.991h-3.721l0.030-21.274h4.224zM32.508 16.945c0.454-0.041 0.828-0.151 1.124-0.335 0.294-0.203 0.54-0.454 0.738-0.759 0.196-0.303 0.333-0.649 0.412-1.033s0.119-0.781 0.119-1.186c0-0.427-0.041-0.841-0.119-1.246-0.074-0.422-0.208-0.799-0.394-1.144l0.010 0.020c-0.173-0.338-0.424-0.615-0.73-0.814l-0.008-0.005c-0.294-0.203-0.678-0.305-1.152-0.305v6.807zM41.745 6.43l1.653 12.826 1.743-12.826h3.723l-3.279 21.274h-4.373l-3.307-21.274h3.84zM49.097 27.703v-21.274h6.942v3.77h-3.132v4.8h3.162v3.951h-3.339v4.8h3.369v3.953h-7.002zM60.922 6.4v17.472h3.189v3.861h-6.852v-21.303l3.663-0.030zM65.018 17.067c0-1.6 0.139-3.051 0.414-4.346 0.277-1.316 0.661-2.441 1.152-3.373 0.493-0.932 1.094-1.651 1.803-2.159 0.641-0.474 1.447-0.758 2.319-0.758s1.678 0.284 2.33 0.766l-0.011-0.008c0.708 0.508 1.31 1.227 1.801 2.159 0.493 0.932 0.877 2.057 1.152 3.373 0.277 1.297 0.414 2.746 0.414 4.346s-0.139 3.059-0.414 4.375c-0.275 1.297-0.659 2.411-1.152 3.343-0.491 0.932-1.092 1.651-1.801 2.159-0.641 0.473-1.447 0.758-2.319 0.758s-1.678-0.284-2.33-0.765l0.011 0.008c-0.708-0.508-1.31-1.227-1.803-2.159-0.491-0.932-0.875-2.046-1.152-3.343-0.264-1.261-0.415-2.709-0.415-4.193 0-0.064 0-0.128 0.001-0.192l-0 0.010zM68.681 17.126c0 1.013 0.049 1.935 0.149 2.767 0.098 0.832 0.235 1.549 0.412 2.157 0.179 0.589 0.384 1.045 0.621 1.367 0.256 0.324 0.533 0.486 0.828 0.486s0.561-0.162 0.798-0.486c0.256-0.324 0.463-0.779 0.619-1.365 0.179-0.61 0.316-1.329 0.414-2.159 0.098-0.832 0.149-1.754 0.149-2.767 0-1.011-0.051-1.933-0.149-2.765-0.084-0.807-0.23-1.539-0.436-2.246l0.022 0.089c-0.156-0.589-0.363-1.045-0.619-1.367-0.237-0.324-0.503-0.486-0.798-0.486-0.297 0-0.572 0.162-0.828 0.486-0.235 0.324-0.442 0.779-0.619 1.365-0.184 0.618-0.33 1.351-0.409 2.104l-0.005 0.055c-0.1 0.832-0.149 1.754-0.149 2.765zM88.559 17.188c0 0.708-0.009 1.468-0.028 2.278 0 0.789-0.051 1.581-0.149 2.37-0.084 0.825-0.239 1.578-0.464 2.301l0.022-0.083c-0.219 0.722-0.552 1.35-0.984 1.896l0.009-0.012c-0.433 0.539-0.977 0.971-1.598 1.266l-0.027 0.012c-0.67 0.324-1.495 0.486-2.481 0.486-1.359 0-2.421-0.243-3.189-0.73-0.754-0.501-1.337-1.206-1.675-2.038l-0.011-0.030c-0.354-0.911-0.57-2.005-0.649-3.281-0.056-1.205-0.088-2.618-0.088-4.038 0-0.077 0-0.153 0-0.23l-0 0.012v-10.97h3.633v10.788c0.019 1.257 0.098 2.37 0.235 3.343 0.060 0.427 0.139 0.841 0.237 1.246 0.098 0.384 0.218 0.74 0.354 1.065 0.158 0.303 0.326 0.555 0.503 0.759 0.167 0.166 0.395 0.269 0.648 0.273h0.001c0.010 0 0.021 0.001 0.033 0.001 0.272 0 0.52-0.104 0.706-0.274l-0.001 0.001c0.218-0.203 0.395-0.457 0.533-0.759 0.151-0.306 0.273-0.663 0.349-1.036l0.005-0.029c0.098-0.405 0.177-0.821 0.235-1.246 0.099-0.832 0.156-1.796 0.156-2.773 0-0.2-0.002-0.4-0.007-0.599l0.001 0.030v-10.758h3.691v10.758zM97.984 6.43c0.021 0 0.032 0.203 0.032 0.608v1.276c0 0.567-0.011 1.205-0.030 1.916-0.61 0-1.231 0.060-1.86 0.181-0.619 0.099-1.176 0.28-1.69 0.534l0.035-0.015c-0.458 0.211-0.849 0.486-1.182 0.819l-0 0c-0.273 0.289-0.442 0.681-0.442 1.111 0 0.005 0 0.009 0 0.014v-0.001c0 0.365 0.128 0.678 0.384 0.943 0.275 0.262 0.599 0.527 0.973 0.789 0.395 0.265 0.819 0.557 1.271 0.881 0.471 0.305 0.896 0.67 1.269 1.094 0.395 0.427 0.719 0.943 0.975 1.551 0.277 0.606 0.414 1.346 0.414 2.219 0 1.295-0.235 2.411-0.708 3.341-0.457 0.917-1.096 1.681-1.874 2.269l-0.016 0.012c-0.789 0.587-1.713 1.024-2.778 1.306-0.992 0.271-2.13 0.427-3.305 0.427-0.021 0-0.043-0-0.064-0h0.003v-3.797c0.354 0 0.817-0.064 1.387-0.183 0.572-0.122 1.122-0.324 1.655-0.608 0.55-0.284 1.024-0.659 1.417-1.124 0.395-0.467 0.582-1.045 0.561-1.732 0-0.346-0.128-0.64-0.384-0.881-0.286-0.286-0.605-0.538-0.953-0.749l-0.022-0.013c-0.254-0.185-0.648-0.455-1.047-0.718l-0.162-0.101c-0.464-0.331-0.871-0.691-1.237-1.089l-0.005-0.006c-0.376-0.453-0.694-0.974-0.93-1.538l-0.015-0.041c-0.235-0.61-0.354-1.359-0.354-2.251 0-0.932 0.256-1.792 0.768-2.581 0.533-0.791 1.212-1.472 2.039-2.037 0.798-0.549 1.718-1.004 2.701-1.317l0.074-0.020c1.045-0.324 2.078-0.486 3.102-0.486zM114.569 6.43l3.070 21.274h-3.678l-0.405-3.283h-2.835l-0.433 3.283h-3.62l3.040-21.274h4.864zM113.182 21.018l-1.045-8.934-0.981 8.934h2.027zM121.199 6.4c0.926 0 1.728 0.181 2.402 0.546 0.676 0.365 1.254 0.853 1.737 1.459 0.484 0.608 0.879 1.316 1.188 2.127 0.309 0.789 0.55 1.611 0.725 2.462 0.171 0.851 0.288 1.713 0.346 2.583 0.077 0.851 0.115 1.643 0.115 2.37 0 1.621-0.164 2.987-0.491 4.102-0.309 1.114-0.715 2.027-1.216 2.735-0.427 0.649-0.936 1.201-1.521 1.661l-0.015 0.011c-0.909 0.678-2.030 1.12-3.249 1.215l-0.022 0.001h-3.561l0.058-21.274h3.503zM121.257 24.45l0.203-0.030c0.198-0.043 0.373-0.117 0.529-0.217l-0.006 0.004c0.23-0.141 0.471-0.354 0.723-0.638 0.269-0.284 0.512-0.687 0.723-1.216 0.23-0.525 0.414-1.184 0.55-1.973 0.154-0.811 0.23-1.805 0.23-2.978-0.002-0.424-0.012-0.839-0.030-1.251l0.002 0.065c-0.025-0.574-0.077-1.108-0.155-1.634l0.010 0.085c-0.068-0.625-0.17-1.183-0.308-1.727l0.018 0.084c-0.138-0.566-0.327-1.062-0.568-1.526l0.018 0.037c-0.194-0.422-0.468-0.777-0.806-1.059l-0.005-0.004c-0.306-0.265-0.707-0.427-1.147-0.427-0.014 0-0.028 0-0.041 0l0.002-0 0.058 14.404zM132.405 6.43l1.621 12.826 1.707-12.826h3.648l-3.213 21.274h-4.286l-3.243-21.274h3.765zM139.61 27.703v-21.274h6.803v3.77h-3.068v4.8h3.095v3.951h-3.27v4.8h3.3v3.953h-6.861zM147.58 27.703v-21.274h3.618l3.098 11.002v-11.002h3.706v21.274h-3.706l-3.127-10.15v10.18l-3.588-0.030zM170.208 6.43v3.861h-3.648v17.412h-3.561v-17.414h-3.908v-3.859h11.115zM182.807 17.188c0 0.708-0.011 1.468-0.030 2.278 0 0.789-0.047 1.581-0.143 2.37-0.079 0.77-0.222 1.51-0.435 2.219-0.213 0.71-0.531 1.338-0.956 1.884-0.423 0.538-0.955 0.969-1.565 1.266l-0.026 0.012c-0.657 0.324-1.468 0.486-2.432 0.486-1.331 0-2.372-0.243-3.125-0.73-0.741-0.504-1.313-1.209-1.641-2.037l-0.010-0.030c-0.348-0.911-0.559-2.005-0.636-3.281-0.056-1.216-0.088-2.641-0.088-4.073 0-0.064 0-0.128 0-0.192v0.010-10.97h3.561v10.788c0.021 1.257 0.096 2.37 0.233 3.343 0.058 0.427 0.134 0.841 0.23 1.246 0.096 0.384 0.213 0.74 0.348 1.065 0.154 0.303 0.32 0.555 0.491 0.759 0.194 0.181 0.405 0.273 0.64 0.273 0.009 0 0.019 0 0.029 0 0.268 0 0.512-0.104 0.693-0.274l-0.001 0c0.213-0.203 0.386-0.457 0.523-0.759 0.154-0.324 0.269-0.681 0.346-1.065 0.098-0.405 0.175-0.821 0.235-1.246 0.113-0.973 0.162-2.086 0.143-3.343v-10.758h3.618v10.758zM187.819 6.43c0.676 0 1.312 0.111 1.911 0.335 0.619 0.222 1.167 0.576 1.649 1.065 0.482 0.465 0.879 1.073 1.186 1.822 0.329 0.751 0.542 1.662 0.638 2.735 0.134 1.318 0.096 2.421-0.115 3.313-0.192 0.87-0.435 1.57-0.725 2.097-0.326 0.649-0.723 1.154-1.186 1.519l2.402 8.388h-3.703l-1.766-7.142-0.811 0.151v6.991h-3.648l0.030-21.274h4.139zM187.298 16.945c0.444-0.041 0.811-0.151 1.099-0.335 0.29-0.203 0.533-0.454 0.725-0.759 0.192-0.303 0.326-0.649 0.405-1.033 0.077-0.384 0.115-0.781 0.115-1.186 0-0.427-0.038-0.841-0.115-1.246-0.073-0.422-0.204-0.799-0.388-1.145l0.010 0.021c-0.169-0.337-0.415-0.614-0.716-0.814l-0.008-0.005c-0.29-0.203-0.666-0.305-1.131-0.305v6.807z"></path>
<path fill="#fafafa" style="fill: var(--color2, #fafafa)" d="M192.587 27.703v-21.274h6.803v3.77h-3.070v4.8h3.098v3.951h-3.27v4.8h3.3v3.953h-6.861zM208.922 6.43c0.021 0 0.030 0.203 0.030 0.608v1.276c0 0.567-0.011 1.205-0.030 1.916-0.597 0-1.205 0.060-1.824 0.181-0.607 0.1-1.152 0.28-1.654 0.533l0.033-0.015c-0.448 0.211-0.831 0.486-1.156 0.818l-0.001 0.001c-0.27 0.291-0.435 0.682-0.435 1.111 0 0.005 0 0.009 0 0.014v-0.001c0 0.365 0.126 0.678 0.378 0.943 0.269 0.262 0.587 0.527 0.954 0.789 0.386 0.265 0.802 0.557 1.246 0.881 0.463 0.305 0.877 0.67 1.244 1.094 0.386 0.427 0.704 0.943 0.956 1.551 0.271 0.606 0.405 1.346 0.405 2.219 0 1.295-0.233 2.411-0.695 3.341-0.445 0.915-1.071 1.678-1.837 2.27l-0.015 0.011c-0.772 0.587-1.679 1.024-2.722 1.306-1.041 0.284-2.142 0.427-3.298 0.427v-3.797c0.346 0 0.8-0.064 1.359-0.183 0.561-0.122 1.101-0.324 1.621-0.608 0.54-0.284 1.003-0.659 1.389-1.124 0.386-0.467 0.57-1.045 0.55-1.732 0-0.346-0.126-0.64-0.375-0.881-0.28-0.286-0.594-0.538-0.935-0.749l-0.021-0.012c-0.257-0.19-0.644-0.46-1.035-0.723l-0.151-0.096c-0.454-0.331-0.852-0.69-1.21-1.087l-0.006-0.007c-0.369-0.454-0.68-0.975-0.911-1.537l-0.015-0.041c-0.233-0.61-0.348-1.359-0.348-2.251 0-0.932 0.25-1.792 0.753-2.581 0.521-0.791 1.186-1.472 1.997-2.037 0.781-0.549 1.683-1.004 2.648-1.317l0.072-0.020c1.024-0.324 2.037-0.486 3.040-0.486z"></path>
<path fill="#fafafa" style="fill: var(--color2, #fafafa)" d="M206.933 2.133h-98.133v-2.133h98.133v2.133zM206.933 32h-98.133v-2.133h98.133v2.133z"></path>
</symbol>
<symbol id="close-icon" viewBox="0 0 32 32">
<path fill="none" stroke="#fafafa" style="stroke: var(--color1, #fafafa)" stroke-linejoin="round" stroke-linecap="round" stroke-miterlimit="4" stroke-width="2.4" d="M24 8l-16 16"></path>
<path fill="none" stroke="#fafafa" style="stroke: var(--color1, #fafafa)" stroke-linejoin="round" stroke-linecap="round" stroke-miterlimit="4" stroke-width="2.4" d="M8 8l16 16"></path>
</symbol>
<symbol id="icon-icon-arrow" viewBox="0 0 32 32">
<path stroke-linejoin="miter" stroke-linecap="butt" stroke-miterlimit="4" stroke-width="0.4706" d="M27.453 7.096l-23.963 23.963-2.549-2.549 23.963-23.963h-23.963v-3.605h30.118v30.118h-3.605v-23.963z"></path>
</symbol>
    <symbol id="icon-last-comics-button-right" viewBox="0 0 48 32">
    <path d="M47.627 16.88l-15.573 14.773c-0.239 0.228-0.563 0.368-0.92 0.368s-0.681-0.14-0.921-0.369l0.001 0c-0.237-0.22-0.384-0.533-0.384-0.88s0.148-0.66 0.383-0.879l0.001-0.001 13.333-12.667h-42.213c-0.024 0.002-0.052 0.003-0.080 0.003-0.684 0-1.24-0.547-1.253-1.228l-0-0.001c0-0.667 0.587-1.227 1.307-1.227h42.267l-13.333-12.667c-0.237-0.22-0.384-0.533-0.384-0.88s0.148-0.66 0.383-0.879l0.001-0.001c0.236-0.215 0.551-0.347 0.897-0.347 0.003 0 0.007 0 0.010 0h-0.001c0.003-0 0.006-0 0.010-0 0.346 0 0.661 0.132 0.898 0.348l-0.001-0.001 15.573 14.773c0.507 0.48 0.507 1.28 0 1.76z"></path>
    </symbol>
    <symbol id="icon-last-comis-arrow" viewBox="0 0 32 32">
    <path stroke-linejoin="miter" stroke-linecap="butt" stroke-miterlimit="4" stroke-width="0.4706" d="M27.454 7.096l-23.972 23.962-2.541-2.541 23.962-23.981h-23.962v-3.595h30.118v30.118h-3.605v-23.962z"></path>
    </symbol>
    <symbol id="icon-last-comics-button-left" viewBox="0 0 48 32">
    <path d="M0.373 15.12l15.573-14.747c0.239-0.228 0.563-0.368 0.92-0.368s0.681 0.14 0.921 0.369l-0.001-0.001c0.507 0.48 0.507 1.253 0 1.733l-13.333 12.667h42.213c0.72 0 1.307 0.533 1.307 1.227 0 0.667-0.587 1.227-1.307 1.227h-42.24l13.333 12.667c0.533 0.48 0.533 1.28 0 1.76-0.236 0.215-0.551 0.347-0.897 0.347-0.003 0-0.007 0-0.010-0h0.001c-0.003 0-0.006 0-0.010 0-0.346 0-0.661-0.132-0.898-0.348l0.001 0.001-15.573-14.773c-0.237-0.22-0.384-0.533-0.384-0.88s0.148-0.66 0.383-0.879l0.001-0.001z"></path>
    </symbol>
</defs>
</svg>

