<svg xmlns="http://www.w3.org/2000/svg" width="267" height="152" fill="none">
  <path fill="#FAFAFA" d="M74.465 66.49v1.674h-3.33V79h-2.052V68.164h-3.348V66.49h8.73Zm3.77 4.032c.3-.504.696-.894 1.188-1.17.504-.288 1.098-.432 1.782-.432v2.124h-.522c-.804 0-1.416.204-1.836.612-.408.408-.612 1.116-.612 2.124V79h-2.052v-9.918h2.052v1.44Zm13.425-1.44-6.084 14.58h-2.124l2.016-4.824-3.906-9.756h2.286l2.79 7.56 2.898-7.56h2.124Zm11.872-3.402V79h-2.052V65.68h2.052Zm6.636 13.482c-.936 0-1.782-.21-2.538-.63a4.67 4.67 0 0 1-1.782-1.8c-.432-.78-.648-1.68-.648-2.7 0-1.008.222-1.902.666-2.682a4.6 4.6 0 0 1 1.818-1.8c.768-.42 1.626-.63 2.574-.63s1.806.21 2.574.63a4.6 4.6 0 0 1 1.818 1.8c.444.78.666 1.674.666 2.682s-.228 1.902-.684 2.682a4.783 4.783 0 0 1-1.872 1.818c-.78.42-1.644.63-2.592.63Zm0-1.782c.528 0 1.02-.126 1.476-.378.468-.252.846-.63 1.134-1.134.288-.504.432-1.116.432-1.836s-.138-1.326-.414-1.818c-.276-.504-.642-.882-1.098-1.134a3.003 3.003 0 0 0-1.476-.378c-.528 0-1.02.126-1.476.378-.444.252-.798.63-1.062 1.134-.264.492-.396 1.098-.396 1.818 0 1.068.27 1.896.81 2.484.552.576 1.242.864 2.07.864Zm11.118 1.782c-.936 0-1.782-.21-2.538-.63a4.67 4.67 0 0 1-1.782-1.8c-.432-.78-.648-1.68-.648-2.7 0-1.008.222-1.902.666-2.682a4.6 4.6 0 0 1 1.818-1.8c.768-.42 1.626-.63 2.574-.63s1.806.21 2.574.63a4.6 4.6 0 0 1 1.818 1.8c.444.78.666 1.674.666 2.682s-.228 1.902-.684 2.682a4.783 4.783 0 0 1-1.872 1.818c-.78.42-1.644.63-2.592.63Zm0-1.782c.528 0 1.02-.126 1.476-.378.468-.252.846-.63 1.134-1.134.288-.504.432-1.116.432-1.836s-.138-1.326-.414-1.818c-.276-.504-.642-.882-1.098-1.134a3.003 3.003 0 0 0-1.476-.378c-.528 0-1.02.126-1.476.378-.444.252-.798.63-1.062 1.134-.264.492-.396 1.098-.396 1.818 0 1.068.27 1.896.81 2.484.552.576 1.242.864 2.07.864Zm10.741-3.33 4.572 4.95h-2.772l-3.672-4.266V79h-2.052V65.68h2.052v7.74l3.6-4.338h2.844l-4.572 4.968Zm6.727-6.282c-.372 0-.684-.126-.936-.378a1.271 1.271 0 0 1-.378-.936c0-.372.126-.684.378-.936s.564-.378.936-.378c.36 0 .666.126.918.378s.378.564.378.936c0 .372-.126.684-.378.936a1.25 1.25 0 0 1-.918.378Zm1.008 1.314V79h-2.052v-9.918h2.052Zm7.338-.162c.78 0 1.476.162 2.088.486.624.324 1.11.804 1.458 1.44.348.636.522 1.404.522 2.304V79h-2.034v-5.544c0-.888-.222-1.566-.666-2.034-.444-.48-1.05-.72-1.818-.72s-1.38.24-1.836.72c-.444.468-.666 1.146-.666 2.034V79h-2.052v-9.918h2.052v1.134a3.412 3.412 0 0 1 1.278-.954 4.178 4.178 0 0 1 1.674-.342Zm10.321 0c.768 0 1.446.156 2.034.468.6.3 1.068.678 1.404 1.134v-1.44h2.07v10.08c0 .912-.192 1.722-.576 2.43a4.133 4.133 0 0 1-1.674 1.692c-.72.408-1.584.612-2.592.612-1.344 0-2.46-.318-3.348-.954-.888-.624-1.392-1.476-1.512-2.556h2.034c.156.516.486.93.99 1.242.516.324 1.128.486 1.836.486.828 0 1.494-.252 1.998-.756.516-.504.774-1.236.774-2.196v-1.656c-.348.468-.822.864-1.422 1.188-.588.312-1.26.468-2.016.468a4.532 4.532 0 0 1-2.376-.648 4.81 4.81 0 0 1-1.692-1.836c-.408-.792-.612-1.686-.612-2.682s.204-1.878.612-2.646c.42-.768.984-1.362 1.692-1.782a4.532 4.532 0 0 1 2.376-.648Zm3.438 5.112c0-.684-.144-1.278-.432-1.782a2.907 2.907 0 0 0-1.098-1.152 2.896 2.896 0 0 0-1.476-.396c-.528 0-1.02.132-1.476.396-.456.252-.828.63-1.116 1.134-.276.492-.414 1.08-.414 1.764 0 .684.138 1.284.414 1.8.288.516.66.912 1.116 1.188.468.264.96.396 1.476.396.528 0 1.02-.132 1.476-.396a2.907 2.907 0 0 0 1.098-1.152c.288-.516.432-1.116.432-1.8Zm12.879-3.276h-1.836V79h-2.07v-8.244h-1.17v-1.674h1.17v-.702c0-1.14.3-1.968.9-2.484.612-.528 1.566-.792 2.862-.792v1.71c-.624 0-1.062.12-1.314.36-.252.228-.378.63-.378 1.206v.702h1.836v1.674Zm5.761 8.406c-.936 0-1.782-.21-2.538-.63a4.67 4.67 0 0 1-1.782-1.8c-.432-.78-.648-1.68-.648-2.7 0-1.008.222-1.902.666-2.682a4.6 4.6 0 0 1 1.818-1.8c.768-.42 1.626-.63 2.574-.63s1.806.21 2.574.63a4.6 4.6 0 0 1 1.818 1.8c.444.78.666 1.674.666 2.682s-.228 1.902-.684 2.682a4.783 4.783 0 0 1-1.872 1.818c-.78.42-1.644.63-2.592.63Zm0-1.782c.528 0 1.02-.126 1.476-.378.468-.252.846-.63 1.134-1.134.288-.504.432-1.116.432-1.836s-.138-1.326-.414-1.818c-.276-.504-.642-.882-1.098-1.134a3.003 3.003 0 0 0-1.476-.378c-.528 0-1.02.126-1.476.378-.444.252-.798.63-1.062 1.134-.264.492-.396 1.098-.396 1.818 0 1.068.27 1.896.81 2.484.552.576 1.242.864 2.07.864Zm8.868-6.858c.3-.504.696-.894 1.188-1.17.504-.288 1.098-.432 1.782-.432v2.124h-.522c-.804 0-1.416.204-1.836.612-.408.408-.612 1.116-.612 2.124V79h-2.052v-9.918h2.052v1.44Zm-118.384 32.64c-.78 0-1.482-.138-2.106-.414-.612-.288-1.098-.672-1.458-1.152a2.915 2.915 0 0 1-.576-1.638h2.124c.036.42.234.774.594 1.062.372.276.834.414 1.386.414.576 0 1.02-.108 1.332-.324.324-.228.486-.516.486-.864 0-.372-.18-.648-.54-.828-.348-.18-.906-.378-1.674-.594a16.244 16.244 0 0 1-1.818-.594 3.263 3.263 0 0 1-1.224-.882c-.336-.396-.504-.918-.504-1.566 0-.528.156-1.008.468-1.44.312-.444.756-.792 1.332-1.044.588-.252 1.26-.378 2.016-.378 1.128 0 2.034.288 2.718.864.696.564 1.068 1.338 1.116 2.322h-2.052c-.036-.444-.216-.798-.54-1.062-.324-.264-.762-.396-1.314-.396-.54 0-.954.102-1.242.306-.288.204-.432.474-.432.81 0 .264.096.486.288.666.192.18.426.324.702.432.276.096.684.222 1.224.378.72.192 1.308.39 1.764.594.468.192.87.48 1.206.864.336.384.51.894.522 1.53 0 .564-.156 1.068-.468 1.512-.312.444-.756.792-1.332 1.044-.564.252-1.23.378-1.998.378Zm9.957 0c-.936 0-1.782-.21-2.538-.63a4.67 4.67 0 0 1-1.782-1.8c-.432-.78-.648-1.68-.648-2.7 0-1.008.222-1.902.666-2.682a4.6 4.6 0 0 1 1.818-1.8c.768-.42 1.626-.63 2.574-.63s1.806.21 2.574.63a4.6 4.6 0 0 1 1.818 1.8c.444.78.666 1.674.666 2.682s-.228 1.902-.684 2.682a4.783 4.783 0 0 1-1.872 1.818c-.78.42-1.644.63-2.592.63Zm0-1.782c.528 0 1.02-.126 1.476-.378.468-.252.846-.63 1.134-1.134.288-.504.432-1.116.432-1.836s-.138-1.326-.414-1.818c-.276-.504-.642-.882-1.098-1.134a3.003 3.003 0 0 0-1.476-.378c-.528 0-1.02.126-1.476.378-.444.252-.798.63-1.062 1.134-.264.492-.396 1.098-.396 1.818 0 1.068.27 1.896.81 2.484.552.576 1.242.864 2.07.864Zm18.823-8.46c.78 0 1.476.162 2.088.486.624.324 1.11.804 1.458 1.44.36.636.54 1.404.54 2.304V103h-2.034v-5.544c0-.888-.222-1.566-.666-2.034-.444-.48-1.05-.72-1.818-.72s-1.38.24-1.836.72c-.444.468-.666 1.146-.666 2.034V103h-2.034v-5.544c0-.888-.222-1.566-.666-2.034-.444-.48-1.05-.72-1.818-.72s-1.38.24-1.836.72c-.444.468-.666 1.146-.666 2.034V103h-2.052v-9.918h2.052v1.134a3.412 3.412 0 0 1 1.278-.954 4.051 4.051 0 0 1 1.656-.342c.792 0 1.5.168 2.124.504a3.445 3.445 0 0 1 1.44 1.458c.3-.6.768-1.074 1.404-1.422.636-.36 1.32-.54 2.052-.54Zm15.427 4.878c0 .372-.024.708-.072 1.008h-7.578c.06.792.354 1.428.882 1.908s1.176.72 1.944.72c1.104 0 1.884-.462 2.34-1.386h2.214a4.498 4.498 0 0 1-1.638 2.25c-.78.576-1.752.864-2.916.864-.948 0-1.8-.21-2.556-.63a4.708 4.708 0 0 1-1.764-1.8c-.42-.78-.63-1.68-.63-2.7 0-1.02.204-1.914.612-2.682a4.428 4.428 0 0 1 1.746-1.8c.756-.42 1.62-.63 2.592-.63.936 0 1.77.204 2.502.612a4.31 4.31 0 0 1 1.71 1.728c.408.732.612 1.578.612 2.538Zm-2.142-.648c-.012-.756-.282-1.362-.81-1.818-.528-.456-1.182-.684-1.962-.684-.708 0-1.314.228-1.818.684-.504.444-.804 1.05-.9 1.818h5.49Zm6.195-2.394v5.49c0 .372.084.642.252.81.18.156.48.234.9.234h1.26V103h-1.62c-.924 0-1.632-.216-2.124-.648-.492-.432-.738-1.134-.738-2.106v-5.49h-1.17v-1.674h1.17v-2.466h2.07v2.466h2.412v1.674h-2.412Zm9.074-1.836c.756 0 1.428.162 2.016.486a3.39 3.39 0 0 1 1.404 1.44c.348.636.522 1.404.522 2.304V103h-2.034v-5.544c0-.888-.222-1.566-.666-2.034-.444-.48-1.05-.72-1.818-.72s-1.38.24-1.836.72c-.444.468-.666 1.146-.666 2.034V103h-2.052V89.68h2.052v4.554c.348-.42.786-.744 1.314-.972a4.489 4.489 0 0 1 1.764-.342Zm7.243-1.152c-.372 0-.684-.126-.936-.378a1.271 1.271 0 0 1-.378-.936c0-.372.126-.684.378-.936s.564-.378.936-.378c.36 0 .666.126.918.378s.378.564.378.936c0 .372-.126.684-.378.936a1.25 1.25 0 0 1-.918.378Zm1.008 1.314V103h-2.052v-9.918h2.052Zm7.338-.162c.78 0 1.476.162 2.088.486.624.324 1.11.804 1.458 1.44.348.636.522 1.404.522 2.304V103h-2.034v-5.544c0-.888-.222-1.566-.666-2.034-.444-.48-1.05-.72-1.818-.72s-1.38.24-1.836.72c-.444.468-.666 1.146-.666 2.034V103h-2.052v-9.918h2.052v1.134a3.412 3.412 0 0 1 1.278-.954 4.178 4.178 0 0 1 1.674-.342Zm10.322 0c.768 0 1.446.156 2.034.468.6.3 1.068.678 1.404 1.134v-1.44h2.07v10.08c0 .912-.192 1.722-.576 2.43a4.133 4.133 0 0 1-1.674 1.692c-.72.408-1.584.612-2.592.612-1.344 0-2.46-.318-3.348-.954-.888-.624-1.392-1.476-1.512-2.556h2.034c.156.516.486.93.99 1.242.516.324 1.128.486 1.836.486.828 0 1.494-.252 1.998-.756.516-.504.774-1.236.774-2.196v-1.656c-.348.468-.822.864-1.422 1.188-.588.312-1.26.468-2.016.468a4.532 4.532 0 0 1-2.376-.648 4.81 4.81 0 0 1-1.692-1.836c-.408-.792-.612-1.686-.612-2.682s.204-1.878.612-2.646c.42-.768.984-1.362 1.692-1.782a4.532 4.532 0 0 1 2.376-.648Zm3.438 5.112c0-.684-.144-1.278-.432-1.782a2.907 2.907 0 0 0-1.098-1.152 2.896 2.896 0 0 0-1.476-.396c-.528 0-1.02.132-1.476.396-.456.252-.828.63-1.116 1.134-.276.492-.414 1.08-.414 1.764 0 .684.138 1.284.414 1.8.288.516.66.912 1.116 1.188.468.264.96.396 1.476.396.528 0 1.02-.132 1.476-.396a2.907 2.907 0 0 0 1.098-1.152c.288-.516.432-1.116.432-1.8Zm17.811-.234c0 .372-.024.708-.072 1.008h-7.578c.06.792.354 1.428.882 1.908s1.176.72 1.944.72c1.104 0 1.884-.462 2.34-1.386h2.214a4.498 4.498 0 0 1-1.638 2.25c-.78.576-1.752.864-2.916.864-.948 0-1.8-.21-2.556-.63a4.708 4.708 0 0 1-1.764-1.8c-.42-.78-.63-1.68-.63-2.7 0-1.02.204-1.914.612-2.682a4.428 4.428 0 0 1 1.746-1.8c.756-.42 1.62-.63 2.592-.63.936 0 1.77.204 2.502.612a4.31 4.31 0 0 1 1.71 1.728c.408.732.612 1.578.612 2.538Zm-2.142-.648c-.012-.756-.282-1.362-.81-1.818-.528-.456-1.182-.684-1.962-.684-.708 0-1.314.228-1.818.684-.504.444-.804 1.05-.9 1.818h5.49Zm5.853-7.47V103h-2.052V89.68h2.052Zm5.934 13.482c-.78 0-1.482-.138-2.106-.414-.612-.288-1.098-.672-1.458-1.152a2.915 2.915 0 0 1-.576-1.638h2.124c.036.42.234.774.594 1.062.372.276.834.414 1.386.414.576 0 1.02-.108 1.332-.324.324-.228.486-.516.486-.864 0-.372-.18-.648-.54-.828-.348-.18-.906-.378-1.674-.594a16.244 16.244 0 0 1-1.818-.594 3.263 3.263 0 0 1-1.224-.882c-.336-.396-.504-.918-.504-1.566 0-.528.156-1.008.468-1.44.312-.444.756-.792 1.332-1.044.588-.252 1.26-.378 2.016-.378 1.128 0 2.034.288 2.718.864.696.564 1.068 1.338 1.116 2.322h-2.052c-.036-.444-.216-.798-.54-1.062-.324-.264-.762-.396-1.314-.396-.54 0-.954.102-1.242.306-.288.204-.432.474-.432.81 0 .264.096.486.288.666.192.18.426.324.702.432.276.096.684.222 1.224.378.72.192 1.308.39 1.764.594.468.192.87.48 1.206.864.336.384.51.894.522 1.53 0 .564-.156 1.068-.468 1.512-.312.444-.756.792-1.332 1.044-.564.252-1.23.378-1.998.378Zm14.745-5.364c0 .372-.024.708-.072 1.008h-7.578c.06.792.354 1.428.882 1.908s1.176.72 1.944.72c1.104 0 1.884-.462 2.34-1.386h2.214a4.498 4.498 0 0 1-1.638 2.25c-.78.576-1.752.864-2.916.864-.948 0-1.8-.21-2.556-.63a4.708 4.708 0 0 1-1.764-1.8c-.42-.78-.63-1.68-.63-2.7 0-1.02.204-1.914.612-2.682a4.428 4.428 0 0 1 1.746-1.8c.756-.42 1.62-.63 2.592-.63.936 0 1.77.204 2.502.612a4.31 4.31 0 0 1 1.71 1.728c.408.732.612 1.578.612 2.538Zm-2.142-.648c-.012-.756-.282-1.362-.81-1.818-.528-.456-1.182-.684-1.962-.684-.708 0-1.314.228-1.818.684-.504.444-.804 1.05-.9 1.818h5.49Zm4.63 5.976c-.372 0-.684-.126-.936-.378a1.271 1.271 0 0 1-.378-.936c0-.372.126-.684.378-.936s.564-.378.936-.378c.36 0 .666.126.918.378s.378.564.378.936c0 .372-.126.684-.378.936a1.25 1.25 0 0 1-.918.378Zm3.982 0c-.372 0-.684-.126-.936-.378a1.271 1.271 0 0 1-.378-.936c0-.372.126-.684.378-.936s.564-.378.936-.378c.36 0 .666.126.918.378s.378.564.378.936c0 .372-.126.684-.378.936a1.25 1.25 0 0 1-.918.378Z"/>
  <path stroke="#34387F" stroke-linecap="round" stroke-linejoin="round" stroke-width="3" d="M53.644 19.718c17.199 17.888-11.517 34.17-28.871 27.967 6.595 5.669 5.07 27.298-20.253 26.946 25.335 7.366 21.271 30.591 11.225 42.3 20.26-10.526 43.622 3.488 42.365 21.459 8.464-14.805 50.576-9.895 53.186 8.652 8.206-7.341 51.195-12.394 58.394 2.85 6.128-11.26 33.108-19.007 50.754-4.261-.03-17.743 9.199-33.023 39.25-32.605-26.409-13.605-22.493-50.179-4.347-56.192-21.844 4.648-38.237-17.163-29.791-35.274-10.588 13.965-48.845 15.093-58.018-4.057-9.455 9.774-37.855 2.462-41.186-9.349.792 9.72-13.123 14.304-26.364 8.41-3.752 18.313-41.185 16.54-46.344 3.154Z"/>
</svg>
