<svg width="18" height="12" viewBox="0 0 18 12" fill="none" xmlns="http://www.w3.org/2000/svg">
<path d="M17.8567 6.32578L12.0193 11.865C11.8296 12.045 11.5212 12.045 11.3315 11.865C11.1417 11.685 11.1417 11.3923 11.3315 11.2123L16.338 6.46149L0.486453 6.46149C0.217931 6.46149 -2.73401e-07 6.25469 -2.62263e-07 5.99989C-2.51125e-07 5.74508 0.217931 5.53828 0.486453 5.53828L16.338 5.53829L11.3315 0.787491C11.1417 0.607467 11.1417 0.314812 11.3315 0.134788C11.4268 0.0443141 11.5513 5.04925e-07 11.6759 5.10368e-07C11.8004 5.15812e-07 11.9249 0.0452373 12.0203 0.134788L17.8577 5.674C18.0474 5.85402 18.0474 6.14667 17.8577 6.3267L17.8567 6.32578Z" fill="#FAFAFA"/>
</svg>
