<svg width="18" height="12" viewBox="0 0 18 12" fill="none" xmlns="http://www.w3.org/2000/svg">
<path d="M0.142975 5.67325L5.98102 0.134682C6.17076 -0.0453215 6.47917 -0.0452878 6.66887 0.134757C6.85857 0.314802 6.85853 0.607456 6.6688 0.787459L1.6617 5.53771L17.5133 5.53944C17.7818 5.53947 17.9997 5.74629 17.9997 6.00109C17.9997 6.2559 17.7817 6.46267 17.5132 6.46264L1.6616 6.46091L6.66766 11.2122C6.85736 11.3923 6.85732 11.6849 6.66759 11.865C6.57223 11.9554 6.4477 11.9997 6.32316 11.9997C6.19863 11.9997 6.0741 11.9544 5.97877 11.8649L0.141931 6.32503C-0.0477658 6.14499 -0.0477338 5.85233 0.142003 5.67233L0.142975 5.67325Z" fill="#FAFAFA"/>
</svg>
