<!-- Generated by IcoMoon.io -->
<svg version="1.1" xmlns="http://www.w3.org/2000/svg" width="209" height="32" viewBox="0 0 209 32">
<title>logo_mob</title>
<path fill="#ed1d24" d="M0 0h100.267v32h-100.267v-32z"></path>
<path fill="#fafafa" d="M4.267 27.703v-21.274h4.725l1.713 10.94 1.685-10.94h4.813v21.303h-3.84v-10.272l-1.683 10.24h-1.978l-1.685-10.148v10.15h-3.75zM25.536 6.43l3.132 21.274h-3.75l-0.414-3.283h-2.895l-0.444 3.283h-3.691l3.1-21.274h4.962zM24.119 21.018l-1.065-8.934-1.003 8.934h2.067zM33.041 6.43c0.689 0 1.338 0.111 1.948 0.335 0.631 0.222 1.193 0.576 1.685 1.065 0.491 0.465 0.896 1.073 1.21 1.822 0.335 0.751 0.553 1.662 0.651 2.735 0.139 1.318 0.098 2.421-0.117 3.313-0.198 0.87-0.444 1.57-0.74 2.097-0.298 0.603-0.706 1.11-1.201 1.512l-0.008 0.006 2.451 8.388h-3.782l-1.803-7.142-0.828 0.151v6.991h-3.721l0.030-21.274h4.224zM32.508 16.945c0.454-0.041 0.828-0.151 1.124-0.335 0.294-0.203 0.54-0.454 0.738-0.759 0.196-0.303 0.333-0.649 0.412-1.033s0.119-0.781 0.119-1.186c0-0.427-0.041-0.841-0.119-1.246-0.074-0.422-0.208-0.799-0.394-1.144l0.010 0.020c-0.173-0.338-0.424-0.615-0.73-0.814l-0.008-0.005c-0.294-0.203-0.678-0.305-1.152-0.305v6.807zM41.745 6.43l1.653 12.826 1.743-12.826h3.723l-3.279 21.274h-4.373l-3.307-21.274h3.84zM49.097 27.703v-21.274h6.942v3.77h-3.132v4.8h3.162v3.951h-3.339v4.8h3.369v3.953h-7.002zM60.922 6.4v17.472h3.189v3.861h-6.852v-21.303l3.663-0.030zM65.018 17.067c0-1.6 0.139-3.051 0.414-4.346 0.277-1.316 0.661-2.441 1.152-3.373 0.493-0.932 1.094-1.651 1.803-2.159 0.641-0.474 1.447-0.758 2.319-0.758s1.678 0.284 2.33 0.766l-0.011-0.008c0.708 0.508 1.31 1.227 1.801 2.159 0.493 0.932 0.877 2.057 1.152 3.373 0.277 1.297 0.414 2.746 0.414 4.346s-0.139 3.059-0.414 4.375c-0.275 1.297-0.659 2.411-1.152 3.343-0.491 0.932-1.092 1.651-1.801 2.159-0.641 0.473-1.447 0.758-2.319 0.758s-1.678-0.284-2.33-0.765l0.011 0.008c-0.708-0.508-1.31-1.227-1.803-2.159-0.491-0.932-0.875-2.046-1.152-3.343-0.264-1.261-0.415-2.709-0.415-4.193 0-0.064 0-0.128 0.001-0.192l-0 0.010zM68.681 17.126c0 1.013 0.049 1.935 0.149 2.767 0.098 0.832 0.235 1.549 0.412 2.157 0.179 0.589 0.384 1.045 0.621 1.367 0.256 0.324 0.533 0.486 0.828 0.486s0.561-0.162 0.798-0.486c0.256-0.324 0.463-0.779 0.619-1.365 0.179-0.61 0.316-1.329 0.414-2.159 0.098-0.832 0.149-1.754 0.149-2.767 0-1.011-0.051-1.933-0.149-2.765-0.084-0.807-0.23-1.539-0.436-2.246l0.022 0.089c-0.156-0.589-0.363-1.045-0.619-1.367-0.237-0.324-0.503-0.486-0.798-0.486-0.297 0-0.572 0.162-0.828 0.486-0.235 0.324-0.442 0.779-0.619 1.365-0.184 0.618-0.33 1.351-0.409 2.104l-0.005 0.055c-0.1 0.832-0.149 1.754-0.149 2.765zM88.559 17.188c0 0.708-0.009 1.468-0.028 2.278 0 0.789-0.051 1.581-0.149 2.37-0.084 0.825-0.239 1.578-0.464 2.301l0.022-0.083c-0.219 0.722-0.552 1.35-0.984 1.896l0.009-0.012c-0.433 0.539-0.977 0.971-1.598 1.266l-0.027 0.012c-0.67 0.324-1.495 0.486-2.481 0.486-1.359 0-2.421-0.243-3.189-0.73-0.754-0.501-1.337-1.206-1.675-2.038l-0.011-0.030c-0.354-0.911-0.57-2.005-0.649-3.281-0.056-1.205-0.088-2.618-0.088-4.038 0-0.077 0-0.153 0-0.23l-0 0.012v-10.97h3.633v10.788c0.019 1.257 0.098 2.37 0.235 3.343 0.060 0.427 0.139 0.841 0.237 1.246 0.098 0.384 0.218 0.74 0.354 1.065 0.158 0.303 0.326 0.555 0.503 0.759 0.167 0.166 0.395 0.269 0.648 0.273h0.001c0.010 0 0.021 0.001 0.033 0.001 0.272 0 0.52-0.104 0.706-0.274l-0.001 0.001c0.218-0.203 0.395-0.457 0.533-0.759 0.151-0.306 0.273-0.663 0.349-1.036l0.005-0.029c0.098-0.405 0.177-0.821 0.235-1.246 0.099-0.832 0.156-1.796 0.156-2.773 0-0.2-0.002-0.4-0.007-0.599l0.001 0.030v-10.758h3.691v10.758zM97.984 6.43c0.021 0 0.032 0.203 0.032 0.608v1.276c0 0.567-0.011 1.205-0.030 1.916-0.61 0-1.231 0.060-1.86 0.181-0.619 0.099-1.176 0.28-1.69 0.534l0.035-0.015c-0.458 0.211-0.849 0.486-1.182 0.819l-0 0c-0.273 0.289-0.442 0.681-0.442 1.111 0 0.005 0 0.009 0 0.014v-0.001c0 0.365 0.128 0.678 0.384 0.943 0.275 0.262 0.599 0.527 0.973 0.789 0.395 0.265 0.819 0.557 1.271 0.881 0.471 0.305 0.896 0.67 1.269 1.094 0.395 0.427 0.719 0.943 0.975 1.551 0.277 0.606 0.414 1.346 0.414 2.219 0 1.295-0.235 2.411-0.708 3.341-0.457 0.917-1.096 1.681-1.874 2.269l-0.016 0.012c-0.789 0.587-1.713 1.024-2.778 1.306-0.992 0.271-2.13 0.427-3.305 0.427-0.021 0-0.043-0-0.064-0h0.003v-3.797c0.354 0 0.817-0.064 1.387-0.183 0.572-0.122 1.122-0.324 1.655-0.608 0.55-0.284 1.024-0.659 1.417-1.124 0.395-0.467 0.582-1.045 0.561-1.732 0-0.346-0.128-0.64-0.384-0.881-0.286-0.286-0.605-0.538-0.953-0.749l-0.022-0.013c-0.254-0.185-0.648-0.455-1.047-0.718l-0.162-0.101c-0.464-0.331-0.871-0.691-1.237-1.089l-0.005-0.006c-0.376-0.453-0.694-0.974-0.93-1.538l-0.015-0.041c-0.235-0.61-0.354-1.359-0.354-2.251 0-0.932 0.256-1.792 0.768-2.581 0.533-0.791 1.212-1.472 2.039-2.037 0.798-0.549 1.718-1.004 2.701-1.317l0.074-0.020c1.045-0.324 2.078-0.486 3.102-0.486zM114.569 6.43l3.070 21.274h-3.678l-0.405-3.283h-2.835l-0.433 3.283h-3.62l3.040-21.274h4.864zM113.182 21.018l-1.045-8.934-0.981 8.934h2.027zM121.199 6.4c0.926 0 1.728 0.181 2.402 0.546 0.676 0.365 1.254 0.853 1.737 1.459 0.484 0.608 0.879 1.316 1.188 2.127 0.309 0.789 0.55 1.611 0.725 2.462 0.171 0.851 0.288 1.713 0.346 2.583 0.077 0.851 0.115 1.643 0.115 2.37 0 1.621-0.164 2.987-0.491 4.102-0.309 1.114-0.715 2.027-1.216 2.735-0.427 0.649-0.936 1.201-1.521 1.661l-0.015 0.011c-0.909 0.678-2.030 1.12-3.249 1.215l-0.022 0.001h-3.561l0.058-21.274h3.503zM121.257 24.45l0.203-0.030c0.198-0.043 0.373-0.117 0.529-0.217l-0.006 0.004c0.23-0.141 0.471-0.354 0.723-0.638 0.269-0.284 0.512-0.687 0.723-1.216 0.23-0.525 0.414-1.184 0.55-1.973 0.154-0.811 0.23-1.805 0.23-2.978-0.002-0.424-0.012-0.839-0.030-1.251l0.002 0.065c-0.025-0.574-0.077-1.108-0.155-1.634l0.010 0.085c-0.068-0.625-0.17-1.183-0.308-1.727l0.018 0.084c-0.138-0.566-0.327-1.062-0.568-1.526l0.018 0.037c-0.194-0.422-0.468-0.777-0.806-1.059l-0.005-0.004c-0.306-0.265-0.707-0.427-1.147-0.427-0.014 0-0.028 0-0.041 0l0.002-0 0.058 14.404zM132.405 6.43l1.621 12.826 1.707-12.826h3.648l-3.213 21.274h-4.286l-3.243-21.274h3.765zM139.61 27.703v-21.274h6.803v3.77h-3.068v4.8h3.095v3.951h-3.27v4.8h3.3v3.953h-6.861zM147.58 27.703v-21.274h3.618l3.098 11.002v-11.002h3.706v21.274h-3.706l-3.127-10.15v10.18l-3.588-0.030zM170.208 6.43v3.861h-3.648v17.412h-3.561v-17.414h-3.908v-3.859h11.115zM182.807 17.188c0 0.708-0.011 1.468-0.030 2.278 0 0.789-0.047 1.581-0.143 2.37-0.079 0.77-0.222 1.51-0.435 2.219-0.213 0.71-0.531 1.338-0.956 1.884-0.423 0.538-0.955 0.969-1.565 1.266l-0.026 0.012c-0.657 0.324-1.468 0.486-2.432 0.486-1.331 0-2.372-0.243-3.125-0.73-0.741-0.504-1.313-1.209-1.641-2.037l-0.010-0.030c-0.348-0.911-0.559-2.005-0.636-3.281-0.056-1.216-0.088-2.641-0.088-4.073 0-0.064 0-0.128 0-0.192v0.010-10.97h3.561v10.788c0.021 1.257 0.096 2.37 0.233 3.343 0.058 0.427 0.134 0.841 0.23 1.246 0.096 0.384 0.213 0.74 0.348 1.065 0.154 0.303 0.32 0.555 0.491 0.759 0.194 0.181 0.405 0.273 0.64 0.273 0.009 0 0.019 0 0.029 0 0.268 0 0.512-0.104 0.693-0.274l-0.001 0c0.213-0.203 0.386-0.457 0.523-0.759 0.154-0.324 0.269-0.681 0.346-1.065 0.098-0.405 0.175-0.821 0.235-1.246 0.113-0.973 0.162-2.086 0.143-3.343v-10.758h3.618v10.758zM187.819 6.43c0.676 0 1.312 0.111 1.911 0.335 0.619 0.222 1.167 0.576 1.649 1.065 0.482 0.465 0.879 1.073 1.186 1.822 0.329 0.751 0.542 1.662 0.638 2.735 0.134 1.318 0.096 2.421-0.115 3.313-0.192 0.87-0.435 1.57-0.725 2.097-0.326 0.649-0.723 1.154-1.186 1.519l2.402 8.388h-3.703l-1.766-7.142-0.811 0.151v6.991h-3.648l0.030-21.274h4.139zM187.298 16.945c0.444-0.041 0.811-0.151 1.099-0.335 0.29-0.203 0.533-0.454 0.725-0.759 0.192-0.303 0.326-0.649 0.405-1.033 0.077-0.384 0.115-0.781 0.115-1.186 0-0.427-0.038-0.841-0.115-1.246-0.073-0.422-0.204-0.799-0.388-1.145l0.010 0.021c-0.169-0.337-0.415-0.614-0.716-0.814l-0.008-0.005c-0.29-0.203-0.666-0.305-1.131-0.305v6.807z"></path>
<path fill="#fafafa" d="M192.587 27.703v-21.274h6.803v3.77h-3.070v4.8h3.098v3.951h-3.27v4.8h3.3v3.953h-6.861zM208.922 6.43c0.021 0 0.030 0.203 0.030 0.608v1.276c0 0.567-0.011 1.205-0.030 1.916-0.597 0-1.205 0.060-1.824 0.181-0.607 0.1-1.152 0.28-1.654 0.533l0.033-0.015c-0.448 0.211-0.831 0.486-1.156 0.818l-0.001 0.001c-0.27 0.291-0.435 0.682-0.435 1.111 0 0.005 0 0.009 0 0.014v-0.001c0 0.365 0.126 0.678 0.378 0.943 0.269 0.262 0.587 0.527 0.954 0.789 0.386 0.265 0.802 0.557 1.246 0.881 0.463 0.305 0.877 0.67 1.244 1.094 0.386 0.427 0.704 0.943 0.956 1.551 0.271 0.606 0.405 1.346 0.405 2.219 0 1.295-0.233 2.411-0.695 3.341-0.445 0.915-1.071 1.678-1.837 2.27l-0.015 0.011c-0.772 0.587-1.679 1.024-2.722 1.306-1.041 0.284-2.142 0.427-3.298 0.427v-3.797c0.346 0 0.8-0.064 1.359-0.183 0.561-0.122 1.101-0.324 1.621-0.608 0.54-0.284 1.003-0.659 1.389-1.124 0.386-0.467 0.57-1.045 0.55-1.732 0-0.346-0.126-0.64-0.375-0.881-0.28-0.286-0.594-0.538-0.935-0.749l-0.021-0.012c-0.257-0.19-0.644-0.46-1.035-0.723l-0.151-0.096c-0.454-0.331-0.852-0.69-1.21-1.087l-0.006-0.007c-0.369-0.454-0.68-0.975-0.911-1.537l-0.015-0.041c-0.233-0.61-0.348-1.359-0.348-2.251 0-0.932 0.25-1.792 0.753-2.581 0.521-0.791 1.186-1.472 1.997-2.037 0.781-0.549 1.683-1.004 2.648-1.317l0.072-0.020c1.024-0.324 2.037-0.486 3.040-0.486z"></path>
<path fill="#fafafa" d="M206.933 2.133h-98.133v-2.133h98.133v2.133zM206.933 32h-98.133v-2.133h98.133v2.133z"></path>
</svg>
