<svg xmlns="http://www.w3.org/2000/svg" aria-hidden="true" style="position:absolute;width:0;height:0;overflow:hidden"><defs><symbol id="icon-logo" viewBox="0 0 202 32"><path fill="#ed1d24" d="M0 .5h98v31H0V.5z" style="fill:var(--color1, #ed1d24)"/><path fill="#fafafa" d="M4.336 26.5V6.9h4.48l1.624 10.08L12.036 6.9H16.6v19.628h-3.64v-9.464L11.364 26.5H9.488l-1.596-9.352V26.5H4.336zM24.499 6.9l2.968 19.6h-3.556l-.392-3.024h-2.744l-.42 3.024h-3.5l2.94-19.6h4.704zm-1.344 13.44-1.008-8.232-.952 8.232h1.96zM31.611 6.9c.653 0 1.269.103 1.848.308.597.205 1.129.532 1.596.98.467.429.849.989 1.148 1.68.317.691.523 1.531.616 2.52.131 1.213.093 2.231-.112 3.052-.187.803-.42 1.447-.7 1.932-.317.597-.7 1.064-1.148 1.4l2.324 7.728h-3.584l-1.708-6.58-.784.14v6.44h-3.528l.028-19.6h4.004zm-.504 9.688c.429-.037.784-.14 1.064-.308.28-.187.513-.42.7-.7s.317-.597.392-.952c.075-.355.112-.719.112-1.092 0-.392-.037-.775-.112-1.148-.075-.392-.196-.737-.364-1.036-.168-.317-.401-.569-.7-.756-.28-.187-.644-.28-1.092-.28v6.272zM39.863 6.9l1.568 11.816L43.083 6.9h3.528l-3.108 19.6h-4.144L36.223 6.9h3.64zM46.833 26.5V6.9h6.58v3.472h-2.968v4.424h2.996v3.64h-3.164v4.424h3.192v3.64h-6.636zM58.041 6.872v16.1h3.024v3.556h-6.496V6.9l3.472-.028zM61.925 16.7c0-1.475.131-2.809.392-4.004.261-1.213.625-2.249 1.092-3.108s1.036-1.521 1.708-1.988 1.409-.7 2.212-.7c.803 0 1.531.233 2.184.7.672.467 1.241 1.129 1.708 1.988s.831 1.895 1.092 3.108c.261 1.195.392 2.529.392 4.004s-.131 2.819-.392 4.032c-.261 1.195-.625 2.221-1.092 3.08s-1.036 1.521-1.708 1.988c-.653.467-1.381.7-2.184.7s-1.54-.233-2.212-.7-1.241-1.129-1.708-1.988c-.467-.859-.831-1.885-1.092-3.08-.261-1.213-.392-2.557-.392-4.032zm3.472.056c0 .933.047 1.783.14 2.548s.224 1.428.392 1.988c.168.541.364.961.588 1.26.243.299.504.448.784.448s.532-.149.756-.448c.243-.299.439-.719.588-1.26.168-.56.299-1.223.392-1.988s.14-1.615.14-2.548-.047-1.783-.14-2.548c-.093-.784-.224-1.447-.392-1.988-.149-.541-.345-.961-.588-1.26-.224-.299-.476-.448-.756-.448s-.541.149-.784.448c-.224.299-.42.719-.588 1.26s-.299 1.204-.392 1.988c-.093.765-.14 1.615-.14 2.548zM84.241 16.812c0 .653-.009 1.353-.028 2.1 0 .728-.047 1.456-.14 2.184-.075.709-.215 1.391-.42 2.044s-.513 1.232-.924 1.736c-.392.485-.905.877-1.54 1.176s-1.419.448-2.352.448c-1.288 0-2.296-.224-3.024-.672-.709-.448-1.241-1.083-1.596-1.904-.336-.84-.541-1.848-.616-3.024-.056-1.176-.084-2.483-.084-3.92V6.872h3.444v9.94c.019 1.157.093 2.184.224 3.08.056.392.131.775.224 1.148.093.355.205.681.336.98.149.28.308.513.476.7.187.168.392.252.616.252.28 0 .513-.084.7-.252.205-.187.373-.42.504-.7.149-.299.261-.625.336-.98.093-.373.168-.756.224-1.148.112-.896.159-1.923.14-3.08V6.9h3.5v9.912zM93.176 6.9c.019 0 .028.187.028.56v1.176c0 .523-.009 1.111-.028 1.764-.579 0-1.167.056-1.764.168-.579.093-1.101.252-1.568.476-.448.205-.821.457-1.12.756-.28.299-.42.644-.42 1.036 0 .336.121.625.364.868.261.243.569.485.924.728.373.243.775.513 1.204.812.448.28.849.616 1.204 1.008.373.392.681.868.924 1.428.261.56.392 1.241.392 2.044 0 1.195-.224 2.221-.672 3.08-.429.84-1.027 1.54-1.792 2.1-.747.541-1.624.943-2.632 1.204s-2.072.392-3.192.392V23c.336 0 .775-.056 1.316-.168s1.064-.299 1.568-.56c.523-.261.971-.607 1.344-1.036s.551-.961.532-1.596c0-.317-.121-.588-.364-.812-.243-.243-.551-.476-.924-.7-.355-.243-.737-.495-1.148-.756-.411-.28-.803-.616-1.176-1.008-.355-.411-.653-.896-.896-1.456-.224-.56-.336-1.251-.336-2.072 0-.859.243-1.652.728-2.38.504-.728 1.148-1.353 1.932-1.876s1.661-.933 2.632-1.232c.989-.299 1.969-.448 2.94-.448zM109.784 6.9l2.968 19.6h-3.556l-.392-3.024h-2.744l-.42 3.024h-3.5l2.94-19.6h4.704zm-1.344 13.44-1.008-8.232-.952 8.232h1.96zM116.197 6.872c.896 0 1.67.168 2.324.504s1.213.784 1.68 1.344c.466.56.849 1.213 1.148 1.96.298.728.532 1.484.7 2.268s.28 1.577.336 2.38c.074.784.112 1.512.112 2.184 0 1.493-.159 2.753-.476 3.78-.299 1.027-.691 1.867-1.176 2.52-.467.653-.962 1.167-1.484 1.54-.934.653-1.988 1.027-3.164 1.12h-3.444l.056-19.6h3.388zm.056 16.632s.065-.009.196-.028c.13-.019.298-.084.504-.196.224-.131.457-.327.7-.588.261-.261.494-.635.7-1.12.224-.485.401-1.092.532-1.82.149-.747.224-1.661.224-2.744 0-.28-.01-.644-.028-1.092-.019-.448-.066-.924-.14-1.428-.056-.504-.15-1.008-.28-1.512-.131-.504-.308-.961-.532-1.372-.206-.411-.467-.737-.784-.98-.318-.261-.7-.392-1.148-.392l.056 13.272zM127.035 6.9l1.568 11.816L130.255 6.9h3.528l-3.108 19.6h-4.144l-3.136-19.6h3.64zM134.005 26.5V6.9h6.58v3.472h-2.968v4.424h2.996v3.64h-3.164v4.424h3.192v3.64h-6.636zM141.713 26.5V6.9h3.5l2.996 10.136V6.9h3.584v19.6h-3.584l-3.024-9.352v9.38l-3.472-.028zM163.601 6.9v3.556h-3.528V26.5h-3.444V10.456h-3.78V6.9h10.752zM175.788 16.812c0 .653-.009 1.353-.028 2.1 0 .728-.047 1.456-.14 2.184-.075.709-.215 1.391-.42 2.044s-.513 1.232-.924 1.736c-.392.485-.905.877-1.54 1.176s-1.419.448-2.352.448c-1.288 0-2.296-.224-3.024-.672-.709-.448-1.241-1.083-1.596-1.904-.336-.84-.541-1.848-.616-3.024-.056-1.176-.084-2.483-.084-3.92V6.872h3.444v9.94c.019 1.157.093 2.184.224 3.08.056.392.131.775.224 1.148.093.355.205.681.336.98.149.28.308.513.476.7.187.168.392.252.616.252.28 0 .513-.084.7-.252.205-.187.373-.42.504-.7.149-.299.261-.625.336-.98.093-.373.168-.756.224-1.148.112-.896.159-1.923.14-3.08V6.9h3.5v9.912zM180.635 6.9c.653 0 1.269.103 1.848.308.597.205 1.129.532 1.596.98.467.429.849.989 1.148 1.68.317.691.523 1.531.616 2.52.131 1.213.093 2.231-.112 3.052-.187.803-.42 1.447-.7 1.932-.317.597-.7 1.064-1.148 1.4l2.324 7.728h-3.584l-1.708-6.58-.784.14v6.44h-3.528l.028-19.6h4.004zm-.504 9.688c.429-.037.784-.14 1.064-.308.28-.187.513-.42.7-.7s.317-.597.392-.952c.075-.355.112-.719.112-1.092 0-.392-.037-.775-.112-1.148-.075-.392-.196-.737-.364-1.036-.168-.317-.401-.569-.7-.756-.28-.187-.644-.28-1.092-.28v6.272z" style="fill:var(--color2, #fafafa)"/><path fill="#fafafa" d="M185.247 26.5V6.9h6.58v3.472h-2.968v4.424h2.996v3.64h-3.164v4.424h3.192v3.64h-6.636zM201.047 6.9c.019 0 .028.187.028.56v1.176c0 .523-.009 1.111-.028 1.764-.578 0-1.166.056-1.764.168-.578.093-1.101.252-1.568.476-.448.205-.821.457-1.12.756-.28.299-.42.644-.42 1.036 0 .336.122.625.364.868.262.243.57.485.924.728.374.243.775.513 1.204.812.448.28.85.616 1.204 1.008.374.392.682.868.924 1.428.262.56.392 1.241.392 2.044 0 1.195-.224 2.221-.672 3.08-.429.84-1.026 1.54-1.792 2.1-.746.541-1.624.943-2.632 1.204s-2.072.392-3.192.392V23c.336 0 .775-.056 1.316-.168.542-.112 1.064-.299 1.568-.56.523-.261.971-.607 1.344-1.036.374-.429.551-.961.532-1.596 0-.317-.121-.588-.364-.812-.242-.243-.55-.476-.924-.7-.354-.243-.737-.495-1.148-.756-.41-.28-.802-.616-1.176-1.008-.354-.411-.653-.896-.896-1.456-.224-.56-.336-1.251-.336-2.072 0-.859.243-1.652.728-2.38.504-.728 1.148-1.353 1.932-1.876s1.662-.933 2.632-1.232c.99-.299 1.97-.448 2.94-.448z" style="fill:var(--color2, #fafafa)"/><path fill="none" stroke="#fafafa" d="M104 1.5h96M104 31.5h96" style="stroke:var(--color2, #fafafa)"/></symbol></defs></svg>