<svg xmlns="http://www.w3.org/2000/svg"><path fill="#FAFAFA" d="M16.041 15.856a1.0104 1.0104 0 0 0-.186.186C14.597 17.255 12.886 18 11 18c-1.933 0-3.682-.782-4.95-2.05S4 12.933 4 11s.782-3.682 2.05-4.95S9.067 4 11 4s3.682.782 4.95 2.05S18 9.067 18 11c0 1.886-.745 3.597-1.959 4.856zm5.666 4.437-3.675-3.675C19.263 15.078 20 13.125 20 11c0-2.485-1.008-4.736-2.636-6.364S13.485 2 11 2 6.264 3.008 4.636 4.636 2 8.515 2 11s1.008 4.736 2.636 6.364S8.515 20 11 20c2.125 0 4.078-.737 5.618-1.968l3.675 3.675c.391.391 1.024.391 1.414 0s.391-1.024 0-1.414z"/></svg>